<?xml version="1.0" standalone="no"?>
<!DOCTYPE svg PUBLIC "-//W3C//DTD SVG 1.1//EN" "http://www.w3.org/Graphics/SVG/1.1/DTD/svg11.dtd" >
<svg xmlns="http://www.w3.org/2000/svg" xmlns:xlink="http://www.w3.org/1999/xlink" version="1.1">
<metadata></metadata>
<defs>
<font id="f37_bellaregular" horiz-adv-x="1120" >
<font-face units-per-em="2048" ascent="1554" descent="-494" />
<missing-glyph horiz-adv-x="307" />
<glyph horiz-adv-x="0" />
<glyph unicode="&#xd;" horiz-adv-x="681" />
<glyph unicode=" "  horiz-adv-x="307" />
<glyph unicode="&#x09;" horiz-adv-x="307" />
<glyph unicode="&#xa0;" horiz-adv-x="307" />
<glyph unicode="!" horiz-adv-x="448" d="M51 156q0 71 51.5 121.5t122.5 50.5t121.5 -51t50.5 -121q0 -72 -50.5 -123t-121.5 -51q-72 0 -123 51t-51 123zM66 1253q0 104 41 157.5t118 53.5q75 0 116.5 -53t41.5 -158q0 -86 -24.5 -175t-53.5 -158t-53.5 -187t-24.5 -254h-4q0 112 -16.5 208.5t-39.5 165 t-46 129.5t-39 130.5t-16 140.5z" />
<glyph unicode="&#x22;" horiz-adv-x="745" d="M51 1321q0 59 40.5 101t101 42t101 -42t40.5 -101q0 -52 -21.5 -129.5t-47.5 -146t-47.5 -158t-21.5 -164.5h-5q0 76 -22 166t-48 158t-48 145t-22 129zM413 1321q0 59 40.5 101t100.5 42t100.5 -42t40.5 -101q0 -65 -34 -168.5t-69 -219.5t-35 -210h-4q0 76 -22 166 t-48 158t-48 145t-22 129z" />
<glyph unicode="#" horiz-adv-x="1210" d="M86 514v4h250l136 352h-250v4h251l172 447h5l-172 -447h384l172 447h5l-172 -447h255v-4h-256l-136 -352h255v-4h-256l-177 -460h-5l177 460h-384l-177 -460h-5l177 460h-249zM341 518h384l136 352h-384z" />
<glyph unicode="$" horiz-adv-x="1142" d="M102 303q0 79 46.5 134t127.5 55q72 0 123.5 -51.5t51.5 -123t-51.5 -123t-123.5 -51.5q-59 0 -105 36.5t-61 92.5q12 -91 119 -181t263 -110v631q-58 25 -98 44t-89 47.5t-81.5 59.5t-61.5 70.5t-43.5 90.5t-14.5 110q0 171 102 286.5t286 136.5v171h5v-170q39 4 74 4 l57 -3v169h5v-169q148 -14 253 -85.5t132 -161.5q10 -32 10 -61q0 -79 -46 -133.5t-128 -54.5q-72 0 -123 51t-51 122.5t51 123t123 51.5q59 0 105.5 -36.5t61.5 -92.5q-12 92 -118 174.5t-270 98.5v-518l29 -12q47 -19 71.5 -30.5t69 -32.5t69.5 -37.5t62 -42.5t58.5 -50 t46.5 -58t38 -70t22 -81t9 -95q0 -169 -137 -300t-338 -153v-143h-5v142q-32 -3 -63 -3l-68 4v-143h-5v144q-143 18 -248 97.5t-131 168.5q-10 36 -11 61zM332 1233q0 -77 41.5 -130.5t118.5 -97.5v443q-45 -11 -78.5 -37t-50.5 -58t-24 -61.5t-7 -58.5zM497 -20 q30 -5 68 -5l63 3v576q-43 19 -131 56v-630zM497 1001q58 -32 131 -61v515q-26 3 -57 3q-18 0 -37 -2t-28 -4l-9 -2v-449zM633 -20q65 7 115.5 28.5t79 49t47 62t24.5 62.5t6 56q0 59 -20.5 107.5t-61 86.5t-84.5 64.5t-106 55.5v-572z" />
<glyph unicode="%" horiz-adv-x="1722" d="M51 1026q0 87 31.5 169t81 140t111.5 92.5t122.5 34.5t122.5 -34.5t111.5 -92.5t80.5 -140t31 -169t-31 -169t-80.5 -140t-111.5 -92.5t-122.5 -34.5t-122.5 34.5t-111.5 92.5t-81 140t-31.5 169zM252 1026q0 -169 15 -263t45.5 -131.5t85 -37.5t84.5 38t44.5 131.5 t14.5 262.5t-14.5 262t-44.5 131.5t-84.5 38.5t-85 -38t-45.5 -132t-15 -262zM530 0l658 1434h6l-659 -1434h-5zM979 408q0 87 31 168.5t81 139.5t112 93t122 35t122 -35t112 -93t81 -139.5t31 -168.5t-31 -169t-81 -140t-112 -93t-122 -35t-122 35t-112 93t-81 140t-31 169 zM1180 408q0 -169 14.5 -263.5t45.5 -132t85 -37.5t84.5 38t44.5 132t14 263t-14 262t-44.5 131.5t-84.5 38.5t-85 -38t-45.5 -132.5t-14.5 -261.5z" />
<glyph unicode="&#x26;" horiz-adv-x="1816" d="M76 385q0 80 28.5 150.5t74.5 124.5t114 102.5t137.5 83t154.5 67.5q-48 71 -70.5 122t-22.5 112q0 135 101 226t268 91q51 0 96 -9.5t87 -31t67.5 -64t25.5 -101.5q0 -43 -21.5 -82.5t-59 -71t-76.5 -54t-85 -41.5q42 -29 94 -58t124.5 -67t110.5 -59q15 33 37.5 64.5 t61 67.5t98 58.5t129.5 22.5q78 0 133.5 -48.5t55.5 -131.5q0 -72 -51.5 -123t-123 -51t-122.5 51t-51 123q0 66 38.5 114t96.5 62q-198 -15 -298 -211q77 -43 134 -82t118.5 -96.5t100.5 -119t64.5 -146.5t25.5 -182q0 -108 -33 -194.5t-86 -139.5t-122.5 -89t-137.5 -50.5 t-137 -14.5q-54 0 -114.5 15.5t-108 37t-87.5 43t-62 36.5l-21 16l4 4q6 -4 16.5 -11.5t43.5 -25t66.5 -30.5t80.5 -24.5t90 -11.5q145 0 145 158q0 72 -38 148.5t-117 187.5l-13 16q-150 -299 -487 -299q-208 0 -342.5 116.5t-134.5 299.5zM399 578q0 -82 28 -171.5 t73 -163t110 -121.5t135 -48q34 0 56.5 2.5t54 13t57.5 31t59 58.5t66 93l-451 638q-115 -57 -151.5 -129.5t-36.5 -202.5zM719 1284q0 -84 44.5 -149.5t128.5 -123.5q51 27 72 79t21 165q0 39 -1.5 64.5t-9 54.5t-21 46t-38.5 28.5t-61 11.5q-59 0 -97 -47.5t-38 -128.5z " />
<glyph unicode="'" horiz-adv-x="385" d="M51 1321q0 59 40.5 101t101 42t101 -42t40.5 -101q0 -52 -21.5 -129.5t-47.5 -146t-47.5 -158t-21.5 -164.5h-5q0 76 -22 166t-48 158t-48 145t-22 129z" />
<glyph unicode="(" horiz-adv-x="677" d="M76 704.5q0 161.5 39.5 314t111 275.5t165 217t207.5 144.5t232 50.5v-4q-218 0 -308.5 -151.5t-90.5 -458.5v-775q0 -307 90.5 -458.5t308.5 -151.5v-4q-119 0 -232.5 50.5t-207 144.5t-165 217t-111 275.5t-39.5 314z" />
<glyph unicode=")" horiz-adv-x="677" d="M-154 -293q218 0 309 151.5t91 458.5v775q0 307 -90.5 458.5t-309.5 151.5v4q119 0 233 -50.5t207.5 -144.5t165 -217t111 -275.5t39.5 -314t-39.5 -314t-111 -275.5t-165 -217t-207.5 -144.5t-233 -50.5v4z" />
<glyph unicode="*" horiz-adv-x="757" d="M25 899q0 48 42.5 68t138 41.5t164.5 54.5l2 1l-4 3q-56 29 -127.5 49t-113.5 27.5t-72 29t-30 59.5q0 27 18 46t49 19t61.5 -22t55.5 -52.5t70 -74.5t92 -77l3 -2v6q-4 82 -35 178.5t-31 128.5q0 39 21 60.5t48 21.5q28 0 49 -21.5t21 -60.5q0 -35 -31 -130.5 t-37 -176.5v-7l8 5q55 38 109 98t91 93t76 33q31 0 49.5 -19.5t18.5 -44.5q0 -38 -30.5 -59.5t-73 -29.5t-113 -27.5t-124.5 -47.5l-8 -5l6 -3q55 -26 126.5 -45t113.5 -27t72 -30t30 -60q0 -27 -18.5 -46t-46.5 -19q-32 0 -63.5 22.5t-56.5 53t-69 73.5t-90 74l-7 4v-6 q6 -79 37 -174.5t31 -130.5q0 -39 -21.5 -60.5t-48.5 -21.5t-48 21.5t-21 60.5q0 35 31 130t35 175v4l-2 -1q-48 -31 -93 -74.5t-70 -73.5t-56 -52.5t-62 -22.5q-30 0 -48 18.5t-18 45.5z" />
<glyph unicode="+" horiz-adv-x="989" d="M86 596v4h406v406h5v-406h405v-4h-405v-408h-5v408h-406z" />
<glyph unicode="," horiz-adv-x="450" d="M51 155.5q0 71.5 51.5 123t122.5 51.5q82 0 128 -55t46 -134q1 -243 -247 -282v4q119 22 175.5 82t65.5 166q-12 -55 -60 -92t-108 -37q-72 0 -123 51t-51 122.5z" />
<glyph unicode="-" horiz-adv-x="704" d="M86 596v4h530v-4h-530z" />
<glyph unicode="." horiz-adv-x="397" d="M25 156q0 71 51 121.5t123 50.5q71 0 121.5 -51t50.5 -121q0 -72 -51 -123t-121 -51q-72 0 -123 51t-51 123z" />
<glyph unicode="/" horiz-adv-x="755" d="M51 -254l649 1688h6l-650 -1688h-5z" />
<glyph unicode="0" horiz-adv-x="1368" d="M51 716.5q0 147.5 57.5 287.5t147.5 239t203.5 159t224.5 60t224.5 -60t203.5 -159t147.5 -239t57.5 -287.5t-57.5 -287t-147.5 -239t-203.5 -159.5t-224.5 -60t-224.5 60t-203.5 159.5t-147.5 239t-57.5 287zM410 717q0 -290 28 -451t86 -226t160 -65t160 65t86 226 t28 451t-28 450.5t-86 225.5t-160 65t-160 -65t-86 -225.5t-28 -450.5z" />
<glyph unicode="1" horiz-adv-x="735" d="M-2 1171v5q172 28 313 104.5t219 183.5h5v-1460h163v-4h-663v4h164v1167h-201z" />
<glyph unicode="2" horiz-adv-x="1107" d="M41 0v31q0 72 8 131t20 103t36.5 84.5t45 66.5t59 59t66 52.5t77.5 55t83 60.5q62 47 107 94.5t70 89t39 91t18 89.5t4 95q0 338 -236 338q-140 0 -250 -81t-122 -212q15 56 61.5 92.5t105.5 36.5q72 0 123.5 -51t51.5 -123t-51.5 -123t-123.5 -51q-82 0 -128 54.5 t-46 133.5q0 152 128 249t339 97q200 0 347 -121.5t147 -283.5q0 -59 -12.5 -109.5t-32.5 -89.5t-55.5 -74t-71 -61t-91 -53.5t-102.5 -46.5t-116 -45q-35 -13 -86 -28.5t-85.5 -25.5t-78.5 -28t-74 -37t-61.5 -51.5t-51.5 -73.5t-35 -101t-20 -135q83 281 318 281 q71 0 137 -24.5t109 -53.5t102.5 -53.5t117.5 -24.5q89 0 150 47.5t61 153.5v8h5v-24q0 -115 -38 -213.5t-115 -161t-177 -62.5q-77 0 -139.5 21.5t-104 52t-79 60.5t-82.5 50.5t-97 18.5q-77 -2 -123.5 -49.5t-46.5 -124.5h-4z" />
<glyph unicode="3" horiz-adv-x="1118" d="M41 258q0 79 46 133.5t128 54.5q72 0 123 -51t51 -122.5t-51 -123t-123 -51.5q-59 0 -106 36.5t-62 92.5q11 -87 77 -144t154 -80t195 -23q121 0 177.5 97.5t56.5 328.5q0 188 -56.5 274t-179.5 86h-143v4h143q140 0 195 79t55 281q0 65 -9 115t-32 99.5t-70.5 76.5 t-117.5 27q-88 0 -169 -37t-137 -107.5t-63 -158.5q15 56 61.5 92.5t106.5 36.5q72 0 123 -51.5t51 -123t-51.5 -122.5t-122.5 -51q-82 0 -128 54.5t-46 133.5q0 150 120.5 249t305.5 99q85 0 163.5 -20.5t147.5 -61t110.5 -111t41.5 -161.5q0 -132 -101 -230.5t-237 -109.5 q164 -13 274.5 -111t110.5 -260q0 -84 -31 -154t-83.5 -119.5t-124.5 -84.5t-152.5 -51.5t-167.5 -16.5q-127 0 -227 29.5t-163 96t-63 161.5z" />
<glyph unicode="4" horiz-adv-x="1142" d="M0 348l918 1157v-1009h59q25 0 45.5 5.5t33 13.5t22 17t14.5 15l3 5l3 -3l-64 -201h-116v-344h163v-4h-663v4h164v344h-582zM123 496h459v578z" />
<glyph unicode="5" horiz-adv-x="1126" d="M51 258q0 79 46 133.5t128 54.5q72 0 123 -51t51 -122.5t-51 -123t-123 -51.5q-59 0 -105.5 36.5t-62.5 92.5q8 -66 51.5 -116t104.5 -77t125.5 -40t124.5 -13q57 0 102.5 15t76 39t52.5 63t33.5 76.5t18.5 90t8.5 93.5t1.5 97q0 123 -32.5 215.5t-103 148t-174.5 55.5 t-183.5 -53.5t-110.5 -144.5h-4q58 366 59 743l12 4q13 5 36 11.5t51.5 12.5t68.5 10.5t80 4.5q83 0 150.5 -21.5t131 -43t137.5 -21.5q63 0 104.5 20.5t43.5 53.5h4q0 -7 -1.5 -22.5t-8.5 -51.5t-19.5 -71t-38 -75t-60 -70.5t-89 -50t-121.5 -19.5q-59 0 -140.5 20 t-133.5 20q-141 0 -203 -177q-26 -73 -55 -256q35 94 139.5 151t247.5 57q234 0 383 -130.5t149 -336.5q0 -113 -48 -204.5t-128 -147t-177.5 -85.5t-203.5 -30q-128 0 -231 29.5t-169.5 96t-66.5 161.5z" />
<glyph unicode="6" horiz-adv-x="1241" d="M51 717q0 83 18.5 168.5t54.5 169.5t93 157t129.5 129.5t168.5 88.5t206 32q95 0 178 -32t139 -102t56 -165q0 -79 -46.5 -133.5t-127.5 -54.5q-72 0 -123.5 51t-51.5 123t51.5 123t123.5 51q59 0 105.5 -36.5t61.5 -92.5q-6 67 -41 119t-89 82.5t-114.5 46.5t-121.5 16 q-116 0 -179 -63.5t-94.5 -222t-37.5 -455.5l-1 -50q40 113 123 170.5t201 57.5q78 0 157.5 -32t147 -88t110 -145t42.5 -194t-47.5 -195t-123.5 -147.5t-167.5 -90t-183.5 -32.5q-179 0 -321.5 101.5t-219 271t-76.5 373.5zM410 654q1 -110 6 -194t15.5 -164t30 -136.5 t47.5 -99.5t68 -64t91 -21q43 0 78.5 22.5t66 72t47.5 137.5t17 209q0 90 -13 165.5t-40 138t-74.5 98.5t-110.5 36q-91 0 -148 -58.5t-81 -141.5z" />
<glyph unicode="7" horiz-adv-x="1007" d="M35 831v615h6v-64q148 80 268 80q65 0 139 -23.5t130 -52t126 -52t127 -23.5q40 0 71.5 11t48 26t27.5 32t14 26.5t3 12.5h6q6 -20 7 -55q0 -127 -66 -248q-14 -27 -49.5 -91t-51.5 -93.5t-41 -82.5t-36.5 -87.5t-21 -78t-9.5 -81.5q0 -82 13.5 -172.5t13.5 -159.5 q0 -54 -13 -104.5t-39 -95t-72.5 -72t-107.5 -27.5q-109 0 -170 83.5t-61 195.5q0 90 29.5 167t86 141t114 115t137 121t133.5 128q99 111 143 199q63 124 64 235q-10 -39 -46.5 -90t-91 -101t-131.5 -84t-155 -34q-53 0 -143.5 13t-147.5 13q-61 0 -107.5 -13t-72.5 -33.5 t-42 -49t-21 -52.5t-5 -51v-43h-6z" />
<glyph unicode="8" horiz-adv-x="1181" d="M66 350q0 85 42 154.5t101 110t133 64.5q-108 73 -167.5 157t-59.5 198q0 81 32 156.5t92.5 137t157 98t213.5 36.5q105 0 199.5 -39t156.5 -115.5t62 -173t-67.5 -171.5t-160.5 -110q55 -29 96.5 -55t84.5 -63.5t70 -78.5t45 -96.5t18 -119.5q0 -128 -76 -237.5 t-194.5 -170.5t-245.5 -61q-111 0 -211.5 33.5t-170 86.5t-110 121.5t-40.5 137.5zM252 381q0 -57 13.5 -114t42 -110t68.5 -93t97.5 -64.5t124.5 -24.5q125 0 207 69.5t82 176.5q0 62 -33 115t-94.5 97.5t-124 79t-149 81t-141.5 83.5q-55 -51 -74 -116t-19 -180zM367 1239 q0 -43 12 -80.5t38 -68.5t53.5 -55t72.5 -50.5t77.5 -43t88.5 -43.5t87 -43q45 45 69 117.5t24 151.5q0 65 -17 123.5t-50.5 106t-89 76t-126.5 28.5q-115 0 -177 -55.5t-62 -163.5z" />
<glyph unicode="9" horiz-adv-x="1220" d="M51 997q0 85 29 160.5t78.5 130t113.5 94.5t136 60t145 20q179 0 321.5 -101t218.5 -270.5t76 -373.5q0 -83 -18 -168.5t-54 -169.5t-93.5 -157.5t-129.5 -129.5t-168.5 -88.5t-205.5 -32.5q-72 0 -140 17.5t-125.5 51.5t-93 90t-35.5 128q0 79 46.5 133.5t128.5 54.5 q72 0 123 -51t51 -122.5t-51.5 -123t-122.5 -51.5q-59 0 -106 36.5t-62 92.5q7 -63 45 -113.5t94 -79.5t119.5 -44t128.5 -15q116 0 181 62.5t97.5 224.5t32.5 455v52q-40 -113 -123 -171.5t-201 -58.5q-77 0 -153.5 31.5t-140 88t-103 145.5t-39.5 193zM365 1018 q0 -438 217 -438q47 0 87 18t67 49.5t45.5 64.5t29.5 72q-1 109 -6 193.5t-16.5 164t-30.5 135t-46.5 98t-67.5 63t-91 20.5q-188 0 -188 -440z" />
<glyph unicode=":" horiz-adv-x="448" d="M51 156q0 71 51.5 121.5t122.5 50.5t121.5 -51t50.5 -121q0 -72 -50.5 -123t-121.5 -51q-72 0 -123 51t-51 123zM51 870q0 71 51.5 121.5t122.5 50.5t121.5 -50.5t50.5 -121.5q0 -72 -50.5 -123t-121.5 -51q-72 0 -123 51t-51 123z" />
<glyph unicode=";" horiz-adv-x="450" d="M51 155.5q0 71.5 51.5 123t122.5 51.5q82 0 128 -55t46 -134q1 -243 -247 -282v4q119 22 175.5 82t65.5 166q-12 -55 -60 -92t-108 -37q-72 0 -123 51t-51 122.5zM51 870q0 71 51.5 121.5t122.5 50.5t121.5 -50.5t50.5 -121.5q0 -72 -50.5 -123t-121.5 -51q-72 0 -123 51 t-51 123z" />
<glyph unicode="&#x3c;" horiz-adv-x="847" d="M86 596v4l674 307v-4l-670 -305l670 -305v-4z" />
<glyph unicode="=" horiz-adv-x="946" d="M86 432v4h772v-4h-772zM86 760v4h772v-4h-772z" />
<glyph unicode="&#x3e;" horiz-adv-x="847" d="M86 289v4l670 305l-670 305v4l674 -307v-4z" />
<glyph unicode="?" horiz-adv-x="1071" d="M20 1176q0 88 63 155t165 100t225 33q121 0 217.5 -23.5t156.5 -60.5t100.5 -86.5t56.5 -97.5t16 -98q0 -75 -32 -133.5t-83 -94.5t-112.5 -65t-123.5 -53t-113 -50t-83 -65t-32 -90q0 -48 26 -96q-58 90 -58 176q0 44 15 84t39 72t54 65t59 69t53 76t39.5 94.5 t15.5 116.5q0 121 -62 184.5t-178 63.5q-165 0 -282.5 -65.5t-134.5 -180.5q15 56 61.5 92.5t106.5 36.5q72 0 123 -51t51 -122.5t-51.5 -123t-122.5 -51.5q-82 0 -128.5 55t-46.5 134zM317 156q0 71 51.5 121.5t123.5 50.5q71 0 121.5 -51t50.5 -121q0 -72 -51 -123 t-121 -51q-72 0 -123.5 51t-51.5 123z" />
<glyph unicode="@" horiz-adv-x="1982" d="M102 590q0 252 125.5 465.5t339.5 338t465 124.5q20 0 47.5 -2t87.5 -10t116.5 -22t130 -43t136.5 -68t125.5 -101t106.5 -138.5t71 -184.5t27 -234q0 -154 -75 -290.5t-206 -220t-284 -83.5q-17 0 -37 1.5t-51.5 6.5t-59.5 14.5t-59 26.5t-52.5 40t-35.5 59.5t-14 80.5 v10q-35 -55 -60 -88.5t-60.5 -67.5t-77.5 -49.5t-93 -15.5q-93 0 -152 75.5t-59 197.5q0 74 26.5 159t75 166t109.5 147.5t138 107t153 40.5q74 0 110.5 -42t36.5 -134l55 168h271l-181 -553q-45 -138 -45 -205q0 -53 29.5 -77.5t95.5 -24.5q143 0 259 80t177.5 205 t61.5 266q0 129 -28.5 238.5t-73.5 186.5t-111 138.5t-129 99.5t-139 66.5t-131 41t-114.5 19.5t-79.5 7.5t-38 0.5q-187 0 -358 -73.5t-295.5 -197.5t-198.5 -295t-74 -357q0 -187 74 -358.5t198.5 -295.5t295.5 -198t358 -74q165 0 316.5 57t275.5 160l4 -4 q-124 -103 -277 -160t-319 -57q-188 0 -360 73.5t-297 198.5t-199 297t-74 361zM729 240q1 -74 64 -74q37 0 78 32.5t70 72t65 98.5q3 51 20 102l123 379q1 20 -1.5 44t-10.5 51.5t-26.5 45t-45.5 17.5q-59 0 -101.5 -69t-109.5 -261l-66 -186q-59 -172 -59 -252z" />
<glyph unicode="A" horiz-adv-x="1456" d="M14 0v4h159l524 1464l593 -1464h150v-4h-721v4h188l-196 488h-359l-174 -488h189v-4h-353zM354 496h355l-188 466z" />
<glyph unicode="B" horiz-adv-x="1353" d="M35 0v4h180v1426h-180v4h614q115 0 210 -18.5t172.5 -57t121 -106t43.5 -158.5q0 -58 -19 -108.5t-47 -83.5t-67 -59t-73.5 -40.5t-71.5 -24t-55 -12.5t-32 -4q14 0 36.5 -2.5t70.5 -12t92.5 -24t96 -44.5t88.5 -68.5t62.5 -98.5t25.5 -133q0 -79 -28 -144t-89 -119.5 t-172 -85t-264 -30.5h-715zM559 4h125q42 0 77 6.5t74 29t66.5 60.5t45.5 106t18 159q0 124 -21.5 204t-67.5 121.5t-100 56.5t-135 15h-82v-758zM559 766h82q44 0 78 7t68 28t56 56.5t36 95.5t14 141q0 86 -20.5 150t-49.5 98t-70 55t-73 27t-66 6h-55v-664z" />
<glyph unicode="C" horiz-adv-x="1171" d="M51 719q0 137 47 269.5t131 238.5t212.5 171.5t279.5 65.5q169 0 281 -75t145 -177q10 -36 10 -61q0 -79 -46 -133.5t-128 -54.5q-72 0 -123 51t-51 122.5t51 123t123 51.5q59 0 105.5 -36.5t61.5 -92.5q-7 48 -39 95.5t-84 89t-132.5 67.5t-173.5 26q-262 0 -297 -485 q-6 -89 -6 -258q0 -171 13 -300.5t37.5 -213t60 -136t76.5 -73.5t93 -21q175 0 303.5 125t165.5 351h4q-19 -131 -77 -237.5t-161.5 -174.5t-234.5 -68q-175 0 -323.5 97.5t-236 270t-87.5 382.5z" />
<glyph unicode="D" horiz-adv-x="1501" d="M35 0v4h180v1426h-180v4h643q113 0 224 -30.5t209.5 -92t174.5 -146t120 -200.5t44 -248t-44 -248.5t-120 -201t-174.5 -146t-209.5 -91.5t-224 -30h-643zM559 4h119q79 0 141 17t107 46.5t77.5 78t53 104t32.5 132.5t16.5 155t4.5 179.5t-4.5 180t-16.5 155t-32.5 132.5 t-53 104t-77.5 78t-107 47t-141 17h-119v-1426z" />
<glyph unicode="E" horiz-adv-x="1265" d="M35 0v4h180v1426h-180v4h1079v-519h-4q-1 10 -4.5 29.5t-19 72.5t-36 101.5t-59.5 108t-86 102t-119.5 72t-156.5 29.5h-70v-693h25q53 0 98 18.5t74.5 49t53 66t36 71.5t20 66t11.5 49l2 18h4v-680h-4q-1 7 -3 19.5t-10.5 47.5t-20 67t-35.5 71t-53 66.5t-74.5 47 t-98.5 19.5h-25v-729h70q104 0 191 31t143 80t99 108.5t65 118.5t36 108.5t17 79.5l4 31h4v-561h-1153z" />
<glyph unicode="F" horiz-adv-x="1153" d="M35 0v4h180v1426h-180v4h1067v-519h-4q-1 10 -4 29.5t-17 72.5t-33.5 101.5t-57 108t-84 102t-118 72t-155.5 29.5h-70v-693h25q53 0 98 18.5t74.5 49t53 66t36 71.5t20 66t11.5 49l2 18h4v-680h-4q-1 7 -3 19.5t-10.5 47.5t-20 67t-35.5 71t-53 66.5t-74.5 47 t-98.5 19.5h-25v-729h180v-4h-704z" />
<glyph unicode="G" horiz-adv-x="1425" d="M51 719q0 112 27 217t86.5 201.5t144 168.5t208.5 115t271 43q207 0 353 -89q66 -41 109.5 -98t43.5 -126q0 -79 -46 -133.5t-128 -54.5q-72 0 -123 51t-51 122.5t51.5 123t122.5 51.5q59 0 105.5 -36.5t61.5 -92.5q-8 51 -46.5 101t-101.5 89q-142 88 -351 88 q-74 0 -133 -25.5t-97 -64t-65.5 -100t-42 -116t-22 -132t-9 -128.5t-1.5 -122v-55q0 -215 19 -361t58.5 -229.5t92.5 -118.5t129 -35q236 0 235 295v365h-180v4h705v-4h-181v-656h-4q-4 47 -44 89.5t-109 42.5q-44 0 -81 -14.5t-66.5 -35t-63.5 -41t-88 -35t-123 -14.5 q-188 0 -341 98t-239 269.5t-86 382.5z" />
<glyph unicode="H" horiz-adv-x="1570" d="M35 0v4h180v1426h-180v4h704v-4h-180v-703h451v703h-181v4h705v-4h-180v-1426h180v-4h-705v4h181v719h-451v-719h180v-4h-704z" />
<glyph unicode="I" horiz-adv-x="776" d="M35 0v4h180v1426h-180v4h704v-4h-180v-1426h180v-4h-704z" />
<glyph unicode="J" horiz-adv-x="972" d="M0 186q0 84 48.5 136.5t125.5 52.5q72 0 123 -51.5t51 -123t-51 -122.5t-123 -51q-58 0 -104 35.5t-63 93.5q12 -79 88 -127.5t188 -48.5q80 0 121.5 55.5t41.5 161.5v1233h-178v4h701v-4h-178v-1022q0 -203 -127.5 -321t-346.5 -118q-123 0 -201 42q-55 29 -85.5 75 t-30.5 100z" />
<glyph unicode="K" horiz-adv-x="1538" d="M35 0v4h180v1426h-180v4h704v-4h-180v-748l582 748h-183v4h371v-4h-182l-353 -455l615 -971h180v-4h-770v4h170l-430 678v-678h180v-4h-704z" />
<glyph unicode="L" horiz-adv-x="1239" d="M35 0v4h180v1426h-180v4h704v-4h-180v-1426h70q104 0 191 31t143 80t99 108.5t65 118.5t36 108.5t17 79.5l4 31h4v-561h-1153z" />
<glyph unicode="M" horiz-adv-x="1708" d="M25 1430v4h522l345 -893l270 893h509v-4h-180v-1426h180v-4h-704v4h180v1362l-420 -1386l-512 1331v-1307h180v-4h-366v4h180v1426h-184z" />
<glyph unicode="N" horiz-adv-x="1349" d="M25 0v4h180v1426h-180v4h536l577 -827v820h-182v7h367v-7h-180v-1447l-933 1338v-1314h181v-4h-366z" />
<glyph unicode="O" horiz-adv-x="1511" d="M51 716.5q0 152.5 63 293.5t163.5 239t227 156.5t251.5 58.5t251.5 -58.5t226.5 -156.5t163 -239t63 -293.5t-63 -293t-163 -238.5t-226.5 -157t-251.5 -59t-251.5 59t-227 157t-163.5 238.5t-63 293zM418 717q0 -288 37 -452t108 -228t193 -64t193 64t108 228t37 452 t-37 451.5t-108 227.5t-193 64t-193 -64t-108 -227.5t-37 -451.5z" />
<glyph unicode="P" horiz-adv-x="1316" d="M35 0v4h180v1426h-180v4h614q300 0 458.5 -127t158.5 -349q0 -94 -26.5 -170t-71 -127.5t-107 -85.5t-133 -49.5t-150.5 -15.5q-56 0 -111 10.5t-81 22.5l-27 10v-549h180v-4h-704zM559 558q82 -34 174 -34q44 0 80 16.5t59.5 41.5t40.5 64t26 75t14 83t6.5 80t1.5 74 q0 134 -25 228t-73 146t-108.5 75t-142.5 23h-53v-872z" />
<glyph unicode="Q" horiz-adv-x="1511" d="M51 717q0 153 63 293.5t163.5 238.5t227 156.5t251.5 58.5t251.5 -58.5t226.5 -156.5t163 -239t63 -293.5t-63 -293t-163 -238.5t-226.5 -157t-251.5 -59q-119 0 -238.5 52t-218.5 144q-54 -81 -54 -169q0 -113 93 -194t217 -81q63 0 134.5 34t135 82t128 96.5t136 82 t136.5 33.5q96 0 161.5 -66t65.5 -169q0 -35 -12 -64.5t-28 -46t-32.5 -29t-27.5 -16.5l-13 -4l-2 4q26 9 43 34.5t17 53.5q0 41 -28.5 69.5t-74.5 28.5q-44 0 -97.5 -25.5t-108 -62t-115.5 -72.5t-140 -61.5t-161 -25.5q-180 0 -306 118.5t-126 280.5q0 87 55 172 q-113 106 -178.5 248t-65.5 301zM418 717q0 -288 37 -452t108 -228t193 -64t193 64t108 228t37 452t-37 451.5t-108 227.5t-193 64t-193 -64t-108 -227.5t-37 -451.5z" />
<glyph unicode="R" horiz-adv-x="1490" d="M35 0v4h180v1426h-180v4h649q241 0 388 -99t147 -256q0 -132 -107.5 -228t-271.5 -103q66 -3 128.5 -18t124.5 -45.5t108 -74t75 -109.5t29 -147v-182q0 -106 27 -145t77 -39h2q65 0 100 71l5 -2q-27 -51 -66 -69.5t-111 -18.5q-65 0 -119.5 11t-104.5 37.5t-85.5 67.5 t-56.5 105t-21 146v133q0 276 -297 276h-96v-741h180v-4h-704zM559 750h96q68 0 109.5 11t74 45t46.5 99.5t14 173.5q0 186 -61.5 268.5t-202.5 82.5h-76v-680z" />
<glyph unicode="S" horiz-adv-x="1128" d="M61 303q0 79 46.5 134t128.5 55q72 0 123 -51.5t51 -123t-51.5 -123t-122.5 -51.5q-59 0 -105.5 36.5t-61.5 92.5q6 -47 42 -98.5t93.5 -96.5t142.5 -74.5t177 -29.5q82 0 145 19.5t99 48.5t59 66t30 68.5t7 62.5q0 68 -27.5 122t-73.5 91t-106 69t-126.5 59t-133 56 t-126.5 65t-106 80t-74 109t-28 145q0 190 124 310t343 120q170 0 292.5 -76t154.5 -176q10 -36 10 -61q0 -79 -46 -133.5t-128 -54.5q-72 0 -123 51t-51 122.5t51 123t123 51.5q59 0 105.5 -36.5t61.5 -92.5q-13 102 -139.5 190t-310.5 88q-55 0 -99 -16t-69.5 -40t-42 -56 t-22.5 -59.5t-6 -55.5q0 -75 43 -132t111 -93.5t151 -71t166 -75.5t151 -93.5t111 -139t43 -200.5q0 -120 -72.5 -226t-198 -169.5t-272.5 -63.5q-168 0 -294 85.5t-158 187.5q-10 36 -11 61z" />
<glyph unicode="T" horiz-adv-x="1232" d="M51 864v570h1131v-570h-5q0 71 -12.5 142.5t-42 145.5t-72.5 132t-111 98t-151 48v-1426h181v-4h-705v4h180v1426q-83 -7 -150.5 -47.5t-110.5 -98.5t-72.5 -132t-42 -145.5t-12.5 -142.5h-5z" />
<glyph unicode="U" horiz-adv-x="1333" d="M25 1430v4h704v-4h-180v-1045q0 -100 12 -167t43 -118.5t87.5 -75.5t142.5 -24q59 0 107 15.5t80 39t55.5 58.5t35 68t19.5 73.5t9.5 68.5t1.5 60v1047h-181v4h366v-4h-180v-1047q0 -69 -9.5 -125t-35 -112t-67 -93.5t-110.5 -60.5t-161 -23q-94 0 -174.5 15t-152.5 50.5 t-123 89t-80 137t-29 190.5v979h-180z" />
<glyph unicode="V" horiz-adv-x="1415" d="M14 1430v4h731v-4h-172l361 -916l297 916h-195v4h363v-4h-162l-475 -1465l-567 1465h-181z" />
<glyph unicode="W" horiz-adv-x="2011" d="M14 1430v4h662v-4h-125l335 -891l132 446l-166 445h-115v4h666v-4h-174l334 -891l264 891h-195v4h363v-4h-162l-434 -1465l-378 1011l-300 -1011l-547 1465h-160z" />
<glyph unicode="X" horiz-adv-x="1572" d="M25 1430v4h778v-4h-199l282 -526l306 526h-238v4h461v-4h-217l-309 -532l479 -894h178v-4h-780v4h201l-325 604l-351 -604h237v-4h-460v4h217l354 609l-436 817h-178z" />
<glyph unicode="Y" horiz-adv-x="1415" d="M14 1430v4h758v-4h-205l351 -736l315 736h-209v4h375v-4h-160l-319 -746v-680h180v-4h-705v4h180v623l-385 803h-176z" />
<glyph unicode="Z" horiz-adv-x="1282" d="M76 0l706 1430h-104q-93 0 -172 -20.5t-134 -54.5t-99 -81t-70.5 -96t-45 -104.5t-26.5 -101t-11 -91.5h-5v553h1046l-706 -1430h129q96 0 179.5 18.5t159.5 61.5t132.5 108t94.5 164t49 224h5v-580h-1128z" />
<glyph unicode="[" horiz-adv-x="714" d="M178 -268v1945h500v-4h-164v-1937h164v-4h-500z" />
<glyph unicode="\" horiz-adv-x="755" d="M51 1434h5l650 -1688h-6z" />
<glyph unicode="]" horiz-adv-x="714" d="M36 -264h164v1937h-164v4h500v-1945h-500v4z" />
<glyph unicode="^" horiz-adv-x="880" d="M51 1080l389 446l389 -446h-7l-382 441l-381 -441h-8z" />
<glyph unicode="_" horiz-adv-x="778" d="M-6 -80h788v-4h-788v4z" />
<glyph unicode="`" horiz-adv-x="493" d="M51 1522h7l385 -279h-7z" />
<glyph unicode="a" d="M66 233q0 117 76.5 194.5t187.5 98.5q52 10 99 13t75 11q57 14 121 104v211q0 91 -42 132.5t-129 41.5q-113 0 -211 -63.5t-120 -162.5q15 55 63 92t105 37q72 0 123 -51t51 -123t-51.5 -123t-122.5 -51q-82 0 -128 54.5t-46 133.5q0 36 10 62q26 69 89.5 117.5 t130.5 68.5t129 20q224 0 350 -99t126 -263v-541q0 -120 77 -120h1q33 0 49 16q28 26 37 82h4q-29 -152 -184 -152q-125 0 -211.5 67.5t-95.5 158.5q-3 -28 -12.5 -56t-31 -59.5t-52 -55.5t-80.5 -39.5t-111 -15.5q-126 0 -201 73.5t-75 186.5zM393 166q0 -82 14 -119 t56 -37q65 0 113.5 67t48.5 128v442q-50 -72 -119 -110q-113 -61 -113 -189v-182z" />
<glyph unicode="b" horiz-adv-x="1198" d="M20 1487v4h492v-655q61 215 246 215q74 0 145 -41t126 -111.5t89.5 -172t34.5 -214.5q0 -72 -15 -144.5t-49 -144t-84.5 -126.5t-128 -89.5t-171.5 -34.5q-56 0 -111.5 18.5t-92.5 41t-84.5 41t-90.5 18.5q-68 0 -100.5 -41t-37.5 -90h-4v1526h-164zM512 215 q0 -120 37 -175.5t113 -55.5q74 0 108.5 98t34.5 317v226q0 222 -28 308.5t-101 86.5q-52 0 -97 -57t-67 -146v-602z" />
<glyph unicode="c" horiz-adv-x="929" d="M45 512q0 106 39 204t106.5 172.5t166 118.5t210.5 44q252 0 320 -207q10 -32 10 -62q0 -79 -46 -133.5t-128 -54.5q-72 0 -123 51t-51 123t51 123t123 51q56 0 103.5 -37t63.5 -92q-19 91 -91 159.5t-197 68.5q-45 0 -80 -17.5t-57 -55t-36 -81.5t-21.5 -109.5t-10 -126 t-2.5 -143.5q0 -48 1 -81t6 -90t13.5 -97t26 -87.5t41.5 -77t62 -49.5t86 -20q137 0 212 103.5t83 289.5h4q-17 -426 -379 -426q-98 0 -190.5 41.5t-162 112.5t-111.5 171.5t-42 213.5z" />
<glyph unicode="d" horiz-adv-x="1198" d="M45 512q0 113 34.5 214.5t89.5 172t126.5 111.5t144.5 41q185 0 246 -215v651h-164v4h492v-1487h164v-4h-492v188q-61 -215 -246 -215q-74 0 -145 41t-126 111.5t-89.5 172t-34.5 214.5zM393 399q0 -222 28.5 -308.5t100.5 -86.5q52 0 97 57t67 146v610q-22 89 -67 146 t-97 57q-73 0 -101 -86.5t-28 -308.5v-226z" />
<glyph unicode="e" horiz-adv-x="1036" d="M45 512q0 140 68.5 265t183 199.5t242.5 74.5q130 0 239 -73.5t170.5 -196.5t61.5 -267h-615v-57q0 -70 1 -115t6.5 -98t14.5 -85t25.5 -65t40 -50t57 -28t78.5 -11q141 0 235 92.5t132 262.5h4q-88 -387 -450 -387q-128 0 -242.5 74.5t-183 199.5t-68.5 265zM395 518 h267q0 121 -2 199.5t-7.5 141.5t-13 96t-22.5 55.5t-32.5 29.5t-45.5 7q-33 0 -57 -12t-39.5 -38.5t-25 -57t-14.5 -80t-6.5 -94t-1.5 -112.5v-135z" />
<glyph unicode="f" horiz-adv-x="948" d="M31 0v4h164v1016h-164v4h164v133q0 148 131.5 254.5t320.5 106.5q117 0 190 -37t101 -123q10 -36 10 -62q0 -79 -46 -133.5t-128 -54.5q-72 0 -123 51t-51 123t51 123t123 51q56 0 104 -37t63 -92q-12 80 -70.5 127t-137.5 47q-90 0 -143 -37q-68 -47 -68 -155v-285h164 v-4h-164v-1016h164v-4h-655z" />
<glyph unicode="g" horiz-adv-x="1150" d="M55 -219q0 99 67.5 155.5t176.5 69.5q-205 63 -205 242q0 160 195 223q-129 96 -129 250q0 140 113 235t288 95q117 0 209.5 -46t142.5 -122q20 4 38 8t58 21.5t67 39.5t49 63.5t22 92.5q0 162 -148 213q44 -24 71.5 -66.5t27.5 -93.5q0 -73 -52.5 -124.5t-126 -51.5 t-125 52t-51.5 124q0 74 51.5 126t125.5 52q20 0 41 -4q24 -4 44.5 -11t48.5 -24t48 -40t34.5 -63t14.5 -89q0 -51 -21.5 -92t-48 -64t-65 -40.5t-59 -23t-42.5 -9.5q47 -73 48 -158q0 -140 -114 -236t-288 -96q-156 0 -268 80q-86 -28 -86 -84q0 -34 41 -53q57 -28 317 -43 q144 -8 245.5 -39.5t159 -84t82.5 -117.5t25 -150q0 -172 -143.5 -286t-362.5 -114q-245 0 -380.5 84t-135.5 199zM213 -209q0 -114 100 -201.5t254 -87.5q153 0 252 63.5t99 168.5q0 93 -68.5 140.5t-245.5 77.5q-20 3 -81 11.5t-111 17.5t-93 21q-45 -27 -75.5 -79.5 t-30.5 -131.5zM414 721q0 -82 8 -142t21 -95t33 -56t40 -28t45.5 -7t45.5 7t40 28t32.5 56t21 95t8.5 142t-8.5 141.5t-21 94.5t-32.5 55.5t-40 27.5t-45.5 7t-45.5 -7t-40 -27.5t-33 -55.5t-21 -94.5t-8 -141.5z" />
<glyph unicode="h" horiz-adv-x="1284" d="M31 0v4h164v1483h-164v4h491v-655q61 215 246 215q166 0 249 -105.5t83 -271.5v-670h164v-4h-586v4h94v807q0 117 -18 163t-68 46q-52 0 -97 -57t-67 -146v-813h94v-4h-585z" />
<glyph unicode="i" horiz-adv-x="706" d="M31 0v4h164v1016h-164v4h491v-1020h164v-4h-655zM186 1407q0 74 49.5 124t123 50t123.5 -50t50 -124t-50 -123t-123.5 -49t-123 49t-49.5 123z" />
<glyph unicode="j" horiz-adv-x="634" d="M-256 -281q0 79 46 134t128 55q72 0 123 -51.5t51 -123t-51 -122.5t-123 -51q-56 0 -103.5 36.5t-63.5 92.5q12 -80 70.5 -127t137.5 -47q90 0 143 36q68 47 68 156v1313h-164v4h492v-1165q0 -148 -132 -254.5t-321 -106.5q-117 0 -190 37t-101 123q-10 36 -10 61z M162 1407q0 74 49 124t123 50t124 -50t50 -124t-50 -123t-124 -49t-123 49t-49 123z" />
<glyph unicode="k" horiz-adv-x="1296" d="M31 0v4h164v1483h-164v4h491v-1042l461 571h-209v4h391v-4h-176l-248 -307l496 -709h111v-4h-635v4h112l-303 438v-438h123v-4h-614z" />
<glyph unicode="l" horiz-adv-x="706" d="M31 0v4h164v1483h-164v4h491v-1487h164v-4h-655z" />
<glyph unicode="m" horiz-adv-x="1804" d="M31 0v4h143v1016h-143v4h471v-188q32 109 96 162t152 53q224 0 297 -215q30 106 101 160.5t161 54.5q166 0 248.5 -105.5t82.5 -271.5v-670h144v-4h-561v4h90v807q0 120 -16.5 164.5t-69.5 44.5q-59 0 -109.5 -59t-68.5 -134q22 -71 22 -146v-7v-670h82v-4h-500v4h90v878 q0 29 -2.5 49.5t-9.5 42.5t-23 34t-40 12q-54 0 -102 -63t-64 -142v-811h82v-4h-553z" />
<glyph unicode="n" horiz-adv-x="1284" d="M31 0v4h164v1016h-164v4h491v-188q61 215 246 215q166 0 249 -105.5t83 -271.5v-670h164v-4h-586v4h94v807q0 117 -18 163t-68 46q-52 0 -97 -57t-67 -146v-813h94v-4h-585z" />
<glyph unicode="o" d="M45 512q0 139 74 264.5t193 200t247 74.5t247.5 -74.5t193 -200t73.5 -264.5t-73.5 -264.5t-193 -200t-247.5 -74.5t-247 74.5t-193 200t-74 264.5zM395 512q0 -68 0.5 -109t2.5 -98t7 -92.5t12.5 -78t20 -67t28.5 -47t39.5 -33t53.5 -10.5t53.5 10.5t40.5 33t29 47.5 t20 66.5t13 78t7 92.5t2.5 98.5t0.5 108.5t-0.5 108.5t-2.5 98.5t-7 92.5t-13 78t-20 66.5t-29 47.5t-40.5 33t-53.5 10.5t-53.5 -10.5t-39.5 -33t-28.5 -47t-20 -67t-12.5 -78t-7 -92.5t-2.5 -98t-0.5 -109z" />
<glyph unicode="p" horiz-adv-x="1208" d="M31 -471h164v1491h-164v4h491v-188q61 215 246 215q74 0 145 -41t126.5 -111.5t89.5 -172t34 -214.5t-34 -214.5t-89.5 -172t-126.5 -111.5t-145 -41q-185 0 -246 215v-659h164v-4h-655v4zM522 207q22 -89 67 -146t97 -57q73 0 101 86.5t28 308.5v226q0 222 -28 308.5 t-101 86.5q-52 0 -97 -57t-67 -146v-610z" />
<glyph unicode="q" horiz-adv-x="1208" d="M45 512q0 113 34.5 214.5t89.5 172t126.5 111.5t144.5 41q184 0 246 -215v188h492v-4h-164v-1491h164v-4h-656v4h164v659q-61 -215 -246 -215q-74 0 -145 41t-126 111.5t-89.5 172t-34.5 214.5zM393 399q0 -222 28.5 -308.5t100.5 -86.5q52 0 97 57t67 146v610 q-22 89 -67 146t-97 57q-73 0 -101 -86.5t-28 -308.5v-226z" />
<glyph unicode="r" horiz-adv-x="972" d="M31 0v4h164v1016h-164v4h491v-86q75 109 199 109q42 0 82.5 -14.5t79.5 -53t55 -94.5q10 -36 10 -62q0 -79 -46 -133.5t-128 -54.5q-72 0 -123 51t-51 123t51 123t123 51q59 0 105 -36.5t61 -92.5q-8 74 -68 131t-151 57q-70 0 -116 -29.5t-83 -82.5v-926h164v-4h-655z " />
<glyph unicode="s" horiz-adv-x="841" d="M66 735q0 120 89.5 218t221.5 98q54 0 149 -38t131 -38q47 0 48 76h4v-410h-4q-3 36 -17 85t-42 105.5t-64.5 104t-90.5 79.5t-114 32q-69 0 -114.5 -45.5t-45.5 -108.5q0 -45 32 -82t83 -65t112.5 -56t123 -63t112.5 -77.5t83 -107.5t32 -145q0 -140 -92 -234t-234 -94 q-66 0 -156 42t-137 42q-35 0 -62 -27t-34 -77h-4v520h4q2 -70 32.5 -155t80 -161t123 -128t153.5 -52q68 0 107.5 40.5t39.5 111.5q0 40 -18.5 73t-50.5 59t-73.5 49.5t-87 46.5t-91 48t-87 57t-73.5 70t-50.5 91.5t-18.5 115.5z" />
<glyph unicode="t" horiz-adv-x="733" d="M20 1020v4h54q186 0 309 114t123 314h4v-428h203v-4h-203v-881q0 -45 18 -72.5t54 -27.5q77 0 76 141v228h6v-234q0 -201 -193 -201q-143 0 -216 86.5t-73 237.5v723h-162z" />
<glyph unicode="u" horiz-adv-x="1253" d="M0 1020v4h492v-811q0 -117 17.5 -163t68.5 -46q52 0 97 57t66 146v813h-94v4h422v-1020h164v-4h-492v188q-61 -215 -245 -215q-166 0 -249 105.5t-83 271.5v670h-164z" />
<glyph unicode="v" horiz-adv-x="1128" d="M14 1020v4h658v-4h-131l232 -541l170 541h-167v4h336v-4h-164l-332 -1055l-438 1055h-164z" />
<glyph unicode="w" horiz-adv-x="1675" d="M14 1020v4h1205v-4h-133l233 -541l170 541h-166v4h336v-6l-164 2l-332 -1055l-311 748l-236 -748l-438 1055h-164zM541 1020l231 -541l76 242l-123 299h-184z" />
<glyph unicode="x" horiz-adv-x="1359" d="M25 1020v4h710v-4h-162l196 -332l251 332h-197v4h387v-4h-184l-254 -336l402 -680h159v-4h-710v4h161l-231 391l-297 -391h199v-4h-387v4h182l300 396l-366 620h-159z" />
<glyph unicode="y" horiz-adv-x="1193" d="M14 1020v4h662v-4h-131l253 -600l209 600h-165v4h336v-4h-166l-437 -1251q-48 -136 -113.5 -203.5t-176.5 -67.5q-61 0 -107 20t-69.5 53t-35 60.5t-16.5 57.5q-4 20 -4 41q0 74 52.5 125t125.5 51t125 -51.5t52 -125t-52 -126t-125 -52.5q-51 0 -94 27.5t-66 71.5 q51 -147 214 -148q111 0 173.5 66.5t110.5 200.5l65 180l-454 1071h-166z" />
<glyph unicode="z" horiz-adv-x="1044" d="M72 0l528 1020h-33q-57 0 -114 -15t-114 -48.5t-100.5 -83.5t-72.5 -126t-31 -169h-4v446h832l-531 -1020h39q65 0 125.5 17t120 57.5t104.5 100t74 151.5t31 205h4v-535h-858z" />
<glyph unicode="{" horiz-adv-x="673" d="M0 713v4h70q125 0 125 178v467q0 143 119.5 243.5t289.5 100.5h70v-4h-66q-50 0 -74 -31t-24 -104v-459q0 -162 -106 -265.5t-291 -127.5q185 -24 291 -128t106 -265v-480q0 -74 24 -104.5t74 -30.5h66v-4h-70q-170 0 -289.5 100.5t-119.5 243.5v488q0 178 -125 178h-70z " />
<glyph unicode="|" horiz-adv-x="694" d="M179 -289v1987h336v-1987h-336z" />
<glyph unicode="}" horiz-adv-x="673" d="M0 -293h66q50 0 74 31t24 104v480q0 162 106 265.5t291 127.5q-185 24 -291 127.5t-106 265.5v459q0 74 -24 104.5t-74 30.5h-66v4h70q170 0 289.5 -100.5t119.5 -243.5v-467q0 -178 125 -178h70v-4h-70q-125 0 -125 -178v-488q0 -143 -119.5 -243.5t-289.5 -100.5h-70v4 z" />
<glyph unicode="~" horiz-adv-x="765" d="M51 645q0 103 65 160t170 57q55 0 100 -15.5t74 -38t55 -44.5t56 -37t64 -15q76 0 76 87q0 16 -1.5 30t-2.5 19l-2 6h4q6 -22 6 -55q0 -103 -65.5 -160t-169.5 -57q-55 0 -100 15t-74.5 37.5t-55 44.5t-55.5 37.5t-64 15.5q-76 0 -76 -87q0 -16 1.5 -30t2.5 -19l2 -6h-4 q-6 22 -6 55z" />
<glyph unicode="&#xa1;" horiz-adv-x="448" d="M51 879q0 72 51.5 123t122.5 51t121.5 -51.5t50.5 -122.5t-50.5 -121.5t-121.5 -50.5q-72 0 -123 50.5t-51 121.5zM66 -219q0 72 16 141t39 130.5t46 129.5t39.5 164.5t16.5 208.5h4q0 -136 24.5 -254t53.5 -186.5t53.5 -158t24.5 -175.5q0 -104 -41.5 -157.5 t-116.5 -53.5q-77 0 -118 53t-41 158z" />
<glyph unicode="&#xa2;" horiz-adv-x="1042" d="M92 512q0 106 39 204t106.5 172.5t166 118.5t210.5 44q87 0 153 -29l118 256h6l-120 -258q118 -51 163 -186q10 -32 10 -62q0 -79 -46 -133.5t-128 -54.5q-50 0 -92 26t-64 70l-164 -356q32 -317 228 -318q137 0 212 103.5t83 289.5h4q-17 -426 -379 -426q-146 0 -271 85 l-100 -216h-6l102 219q-105 74 -168 192.5t-63 258.5zM442 508q0 -110 7 -173l162 351q-15 33 -15 72q0 58 35.5 104.5t90.5 62.5l43 94q-51 22 -116 22q-45 0 -79.5 -17.5t-57 -55t-36.5 -81.5t-21.5 -109.5t-10 -126t-2.5 -143.5zM728 927q23 5 42 5q56 0 104 -37t63 -92 q-12 61 -54.5 122t-112.5 92z" />
<glyph unicode="&#xa3;" horiz-adv-x="1144" d="M51 223q0 109 72 178.5t194 69.5q49 0 106.5 -17.5t89.5 -32.5t104 -55.5t91 -50.5q7 29 7 50q0 29 -19.5 62t-46.5 60.5t-72 62.5t-78 58t-83.5 56t-72.5 49h-232v4h227q-223 155 -223 352q0 121 73 212.5t184.5 136t239.5 44.5q186 0 298 -81.5t112 -227.5 q0 -79 -46 -133.5t-128 -54.5q-72 0 -123 51t-51 122.5t51 123t123 51.5q59 0 106 -36.5t63 -92.5q-13 130 -119 201t-269 71q-122 0 -181 -70t-59 -192q0 -68 21 -126t59.5 -106t76.5 -84t89 -82t81 -79h271v-4h-268q94 -109 94 -228q0 -32 -9.5 -61t-23.5 -47.5t-30 -33.5 t-25.5 -22t-13.5 -8q134 -70 229 -69q60 0 95.5 24t35.5 68q0 31 -12.5 56.5t-25.5 35.5l-12 9l3 3q3 -2 7.5 -5.5t16.5 -18t21 -31.5t17 -47t8 -64q0 -65 -15.5 -119t-48 -99.5t-90.5 -71t-137 -25.5q-132 0 -283 94q-35 -37 -65 -53q-55 -29 -131 -29q-118 0 -195.5 65 t-77.5 187zM195 74q0 -45 34.5 -72t94.5 -27q123 0 192 80q-11 7 -46.5 30t-49.5 30.5t-41 21.5t-48.5 18.5t-43.5 4.5q-44 0 -68 -24.5t-24 -61.5z" />
<glyph unicode="&#xa5;" horiz-adv-x="1415" d="M14 1430v4h758v-4h-205l351 -736l315 736h-209v4h375v-4h-160l-213 -496h256v-4h-258l-103 -242h361v-4h-362v-680h180v-4h-705v4h180v623l-27 57h-351v4h349l-116 242h-233v4h231l-238 496h-176z" />
<glyph unicode="&#xa6;" horiz-adv-x="694" d="M179 -289v827h336v-827h-336zM179 904v794h336v-794h-336z" />
<glyph unicode="&#xa7;" horiz-adv-x="995" d="M66 -13q0 79 46 133.5t128 54.5q72 0 123 -50.5t51 -123.5t-51.5 -123.5t-122.5 -50.5q-59 0 -106 36.5t-62 92.5q27 -139 131.5 -213.5t257.5 -74.5q110 0 177 69t67 195q0 57 -21.5 100.5t-58.5 70.5t-84.5 48t-100 39t-104.5 38t-100 49.5t-84.5 69.5t-58 103.5 t-21.5 144.5q0 133 102 257q-90 92 -90 242q0 116 60.5 200.5t161.5 127t226 42.5q86 0 156 -22t115 -59t73 -81t43 -94q10 -36 10 -66q0 -79 -46 -134t-128 -55q-73 0 -123.5 51t-50.5 123.5t50.5 123.5t123.5 51q59 0 105.5 -36.5t62.5 -93.5q-8 50 -33 97.5t-68.5 92 t-117 71.5t-165.5 27q-113 0 -176.5 -66.5t-63.5 -193.5q0 -74 35 -124t90 -78t122.5 -51t135 -51.5t122.5 -69t90 -114t35 -176.5q0 -135 -101 -255q98 -93 99 -246q0 -162 -136.5 -266.5t-328.5 -104.5q-86 0 -155.5 22t-115 59.5t-73.5 81t-42 93.5q-10 36 -10 67z M125 719q0 -72 37.5 -124t95.5 -80.5t136.5 -54t153 -44.5t151.5 -53t126 -79q57 70 58 124q0 74 -38.5 127t-98 80.5t-139 53t-154.5 44t-152 54.5t-125 83q-51 -55 -51 -131z" />
<glyph unicode="&#xa8;" horiz-adv-x="980" d="M51 1407q0 72 50.5 122t122 50t121.5 -50t50 -122t-50 -122t-121.5 -50t-122 50t-50.5 122zM586 1407q0 72 50 122t121.5 50t122 -50t50.5 -122t-50.5 -122t-122 -50t-121.5 50t-50 122z" />
<glyph unicode="&#xa9;" horiz-adv-x="1699" d="M102 716.5q0 151.5 59.5 290.5t159.5 239t238.5 159t290 59t290.5 -59t239 -159t159 -239t59 -290.5t-59 -290t-159 -238.5t-239 -159.5t-290.5 -59.5t-290 59.5t-238.5 159.5t-159.5 238.5t-59.5 290zM106 716.5q0 -151.5 59 -289t158.5 -237t237 -158.5t289 -59 t289.5 59t237.5 158.5t158 237t58.5 289t-58.5 289.5t-158 237t-237.5 158t-289.5 59t-289 -59t-237 -158t-158.5 -237t-59 -289.5zM376 715q0 96 33 189t92 168.5t149.5 122t196.5 46.5q69 0 140.5 -24.5t95.5 -24.5q29 0 47.5 15t22.5 30l5 14h4v-430h-4q-5 33 -17 77 t-38 106t-59 112t-85.5 85.5t-111.5 35.5q-35 0 -64.5 -13t-50 -31.5t-37.5 -52.5t-27.5 -62t-17.5 -74.5t-10.5 -75.5t-5.5 -78t-2 -70.5v-65.5q0 -150 14 -255t42 -162t62 -82t79 -25q59 0 115 35.5t94 86t69 111t46.5 107.5t20.5 76h4v-430h-4q0 2 -2 6t-7.5 14.5 t-13.5 18t-23.5 14.5t-33.5 7q-27 0 -110 -25t-155 -25q-187 0 -320 153t-133 376z" />
<glyph unicode="&#xab;" horiz-adv-x="836" d="M51 635v4l367 307v-4l-363 -305l363 -305v-4zM419 635v4l366 307v-4l-362 -305l362 -305v-4z" />
<glyph unicode="&#xac;" horiz-adv-x="1707" />
<glyph unicode="&#xad;" horiz-adv-x="704" d="M86 596v4h530v-4h-530z" />
<glyph unicode="&#xae;" horiz-adv-x="1699" d="M102 716.5q0 151.5 59.5 290.5t159.5 239t238.5 159t290 59t290.5 -59t239 -159t159 -239t59 -290.5t-59 -290t-159 -238.5t-239 -159.5t-290.5 -59.5t-290 59.5t-238.5 159.5t-159.5 238.5t-59.5 290zM106 716.5q0 -151.5 59 -289t158.5 -237t237 -158.5t289 -59 t289.5 59t237.5 158.5t158 237t58.5 289t-58.5 289.5t-158 237t-237.5 158t-289.5 59t-289 -59t-237 -158t-158.5 -237t-59 -289.5zM391 269v4h120v946h-120v4h432q160 0 258 -65.5t98 -169.5q0 -88 -72 -152t-180 -69q56 -3 107.5 -18.5t98.5 -45t75 -81t28 -117.5v-118 q0 -71 18 -97t51 -26q45 0 67 45l4 -1q-18 -34 -43.5 -46t-72.5 -12q-54 0 -98.5 12t-82 39.5t-58 76t-20.5 116.5v88q0 183 -197 183h-65v-492h121v-4h-469zM739 769h65q46 0 73 7t49 29.5t31.5 66.5t9.5 116q0 123 -41 177t-135 54h-52v-450z" />
<glyph unicode="&#xaf;" horiz-adv-x="806" d="M87 1320v4h633v-4h-633z" />
<glyph unicode="&#xb0;" horiz-adv-x="441" d="M51 1407q0 71 50 120t120.5 49t119.5 -49t49 -120t-49 -120.5t-119.5 -49.5t-120.5 49.5t-50 120.5zM55 1407q0 -68 49.5 -117t117 -49t116 49t48.5 117t-48.5 116.5t-116 48.5t-117 -48.5t-49.5 -116.5z" />
<glyph unicode="&#xb1;" horiz-adv-x="928" d="M87 114v4h753v-4h-753zM87 595v4h375v406h5v-406h375v-4h-375v-356h-5v356h-375z" />
<glyph unicode="&#xb4;" horiz-adv-x="493" d="M51 1240l385 279h7l-385 -279h-7z" />
<glyph unicode="&#xb6;" horiz-adv-x="1226" d="M51 971q0 68 15 130t53.5 124t96.5 107t152 73.5t214 28.5h624v-4h-196v-1557q0 -88 -45 -158.5t-116 -111t-147 -61.5t-149 -21q-160 0 -247 78.5t-102 222.5q-8 76 41 132t133 56q73 0 123.5 -51t50.5 -123t-50.5 -123t-123.5 -51q-59 0 -105 36.5t-61 92.5 q35 -189 197 -245q59 -20 121 -20q71 0 105 47.5t34 109.5v813h-87q-114 0 -206.5 29t-151.5 76t-99 110.5t-57 128t-17 131.5zM561 -475q75 2 150 24t142.5 63t109.5 109t42 152v1557l-331 2v-1741q0 -80 -35 -119.5t-78 -46.5z" />
<glyph unicode="&#xb7;" horiz-adv-x="397" d="M25 725q0 71 51 121.5t123 50.5q71 0 121.5 -50.5t50.5 -121.5q0 -72 -51 -123t-121 -51q-72 0 -123 51t-51 123z" />
<glyph unicode="&#xb8;" horiz-adv-x="493" d="M51 -278h4q1 -50 22 -85t69 -35q35 0 64 29t29 75q0 32 -14 56.5t-28 32.5l-14 9l161 196h6l-36 -44q57 -28 93 -76t36 -112q0 -97 -68.5 -152t-156.5 -55q-163 -1 -167 161z" />
<glyph unicode="&#xbb;" horiz-adv-x="836" d="M51 327v4l363 305l-363 305v4l367 -307v-4zM419 327v4l362 305l-362 305v4l366 -307v-4z" />
<glyph unicode="&#xbf;" horiz-adv-x="1019" d="M0 -65q0 75 31.5 133.5t83 95t113 65t123.5 52.5t113 50t83 65t32 90q0 48 -26 97q58 -90 58 -176q0 -44 -15 -84t-39.5 -72.5t-53.5 -65t-58.5 -69t-53.5 -76.5t-39.5 -94.5t-15.5 -116.5q0 -121 61.5 -184.5t177.5 -63.5q165 0 283 65.5t135 180.5q-15 -56 -61.5 -92.5 t-106.5 -36.5q-72 0 -123 50.5t-51 123.5t51.5 123.5t122.5 50.5q82 0 128 -54.5t46 -133.5q0 -88 -63 -155.5t-164.5 -100.5t-224.5 -33q-121 0 -218 23.5t-156.5 60.5t-100 86.5t-56.5 97.5t-16 98zM356 878q0 72 51 123t121 51q72 0 123 -50.5t51 -123.5 q0 -71 -51 -121.5t-123 -50.5q-71 0 -121.5 50.5t-50.5 121.5z" />
<glyph unicode="&#xc0;" horiz-adv-x="1456" d="M14 0v4h159l524 1464l593 -1464h150v-4h-721v4h188l-196 488h-359l-174 -488h189v-4h-353zM354 496h355l-188 466zM503 1829h7l385 -279h-7z" />
<glyph unicode="&#xc1;" horiz-adv-x="1456" d="M14 0v4h159l524 1464l593 -1464h150v-4h-721v4h188l-196 488h-359l-174 -488h189v-4h-353zM354 496h355l-188 466zM503 1546l385 279h7l-385 -279h-7z" />
<glyph unicode="&#xc2;" horiz-adv-x="1456" d="M14 0v4h159l524 1464l593 -1464h150v-4h-721v4h188l-196 488h-359l-174 -488h189v-4h-353zM309 1551l389 282l389 -282h-7l-382 277l-381 -277h-8zM354 496h355l-188 466z" />
<glyph unicode="&#xc3;" horiz-adv-x="1456" d="M14 0v4h159l524 1464l593 -1464h150v-4h-721v4h188l-196 488h-359l-174 -488h189v-4h-353zM354 496h355l-188 466zM367 1628q0 103 65 160t169 57q55 0 100 -15t74.5 -38t55 -45t55.5 -37t64 -15q76 0 76 87q0 16 -1.5 30t-2.5 19l-2 6h4q6 -22 6 -55q0 -103 -65 -160 t-169 -57q-55 0 -100.5 15t-74.5 37.5t-54.5 44.5t-56 37.5t-64.5 15.5q-76 0 -75 -87q0 -16 1.5 -30t2.5 -19l2 -6h-4q-6 22 -6 55z" />
<glyph unicode="&#xc4;" horiz-adv-x="1456" d="M14 0v4h159l524 1464l593 -1464h150v-4h-721v4h188l-196 488h-359l-174 -488h189v-4h-353zM257 1714q0 72 50 122t122 50t122 -50t50 -122t-50 -122t-122 -50t-122 50t-50 122zM354 496h355l-188 466zM792 1714q0 72 50 122t121.5 50t122 -50t50.5 -122t-50.5 -122 t-122 -50t-121.5 50t-50 122z" />
<glyph unicode="&#xc5;" horiz-adv-x="1456" d="M14 0v4h159l524 1464l593 -1464h150v-4h-721v4h188l-196 488h-359l-174 -488h189v-4h-353zM354 496h355l-188 466zM528 1714.5q0 70.5 50 119.5t120.5 49t119.5 -49t49 -119.5t-49 -120.5t-119.5 -50t-120.5 50t-50 120.5zM532 1714.5q0 -67.5 49.5 -117t117 -49.5 t116 49.5t48.5 117t-48.5 116t-116 48.5t-117 -48.5t-49.5 -116z" />
<glyph unicode="&#xc6;" horiz-adv-x="2082" d="M14 0v4h171l847 1426h-180v4h1079v-519h-4q-1 10 -4.5 29.5t-19 72.5t-36 101.5t-59.5 108t-86 102t-119.5 72t-156.5 29.5h-70v-693h25q53 0 98 18.5t75 49t53 66t35.5 71.5t20.5 66t11 49l2 18h4v-680h-4q-1 7 -2.5 19.5t-10.5 47.5t-20.5 67t-35 71t-53 66.5t-75 47 t-98.5 19.5h-25v-729h70q104 0 191 31t143 80t99 108.5t65 118.5t36 108.5t17 79.5l4 31h4v-561h-1153v4h180v729h-408l-434 -729h263v-4h-439zM626 737h406v683z" />
<glyph unicode="&#xc7;" horiz-adv-x="1171" d="M51 719q0 137 47 269.5t131 238.5t212.5 171.5t279.5 65.5q169 0 281 -75t145 -177q10 -36 10 -61q0 -79 -46 -133.5t-128 -54.5q-72 0 -123 51t-51 122.5t51 123t123 51.5q59 0 105.5 -36.5t61.5 -92.5q-7 48 -39 95.5t-84 89t-132.5 67.5t-173.5 26q-262 0 -297 -485 q-6 -89 -6 -258q0 -171 13 -300.5t37.5 -213t60 -136t76.5 -73.5t93 -21q175 0 303.5 125t165.5 351h4q-28 -189 -138 -323t-283 -154l-35 -43q57 -28 93 -76t36 -112q0 -97 -68.5 -152t-157.5 -55q-162 0 -166 162h4q1 -50 22 -85.5t69 -35.5q35 0 63.5 29t28.5 75 q0 32 -14 56.5t-27 33.5l-14 9l158 193q-29 -2 -44 -2q-175 0 -323.5 97.5t-236 270t-87.5 382.5z" />
<glyph unicode="&#xc8;" horiz-adv-x="1265" d="M35 0v4h180v1426h-180v4h1079v-519h-4q-1 10 -4.5 29.5t-19 72.5t-36 101.5t-59.5 108t-86 102t-119.5 72t-156.5 29.5h-70v-693h25q53 0 98 18.5t74.5 49t53 66t36 71.5t20 66t11.5 49l2 18h4v-680h-4q-1 7 -3 19.5t-10.5 47.5t-20 67t-35.5 71t-53 66.5t-74.5 47 t-98.5 19.5h-25v-729h70q104 0 191 31t143 80t99 108.5t65 118.5t36 108.5t17 79.5l4 31h4v-561h-1153zM468 1849h7l385 -278h-7z" />
<glyph unicode="&#xc9;" horiz-adv-x="1265" d="M35 0v4h180v1426h-180v4h1079v-519h-4q-1 10 -4.5 29.5t-19 72.5t-36 101.5t-59.5 108t-86 102t-119.5 72t-156.5 29.5h-70v-693h25q53 0 98 18.5t74.5 49t53 66t36 71.5t20 66t11.5 49l2 18h4v-680h-4q-1 7 -3 19.5t-10.5 47.5t-20 67t-35.5 71t-53 66.5t-74.5 47 t-98.5 19.5h-25v-729h70q104 0 191 31t143 80t99 108.5t65 118.5t36 108.5t17 79.5l4 31h4v-561h-1153zM468 1567l385 278h7l-385 -278h-7z" />
<glyph unicode="&#xca;" horiz-adv-x="1265" d="M35 0v4h180v1426h-180v4h1079v-519h-4q-1 10 -4.5 29.5t-19 72.5t-36 101.5t-59.5 108t-86 102t-119.5 72t-156.5 29.5h-70v-693h25q53 0 98 18.5t74.5 49t53 66t36 71.5t20 66t11.5 49l2 18h4v-680h-4q-1 7 -3 19.5t-10.5 47.5t-20 67t-35.5 71t-53 66.5t-74.5 47 t-98.5 19.5h-25v-729h70q104 0 191 31t143 80t99 108.5t65 118.5t36 108.5t17 79.5l4 31h4v-561h-1153zM274 1572l390 281l389 -281h-7l-382 276l-381 -276h-9z" />
<glyph unicode="&#xcb;" horiz-adv-x="1265" d="M35 0v4h180v1426h-180v4h1079v-519h-4q-1 10 -4.5 29.5t-19 72.5t-36 101.5t-59.5 108t-86 102t-119.5 72t-156.5 29.5h-70v-693h25q53 0 98 18.5t74.5 49t53 66t36 71.5t20 66t11.5 49l2 18h4v-680h-4q-1 7 -3 19.5t-10.5 47.5t-20 67t-35.5 71t-53 66.5t-74.5 47 t-98.5 19.5h-25v-729h70q104 0 191 31t143 80t99 108.5t65 118.5t36 108.5t17 79.5l4 31h4v-561h-1153zM222 1734.5q0 71.5 50.5 122t122 50.5t121.5 -50.5t50 -122t-50 -121.5t-121.5 -50t-122 50t-50.5 121.5zM757 1734.5q0 71.5 50 122t121.5 50.5t122 -50.5t50.5 -122 t-50.5 -121.5t-122 -50t-121.5 50t-50 121.5z" />
<glyph unicode="&#xcc;" horiz-adv-x="776" d="M35 0v4h180v1426h-180v4h704v-4h-180v-1426h180v-4h-704zM195 1850h7l385 -278h-7z" />
<glyph unicode="&#xcd;" horiz-adv-x="776" d="M35 0v4h180v1426h-180v4h704v-4h-180v-1426h180v-4h-704zM195 1568l385 278h7l-385 -278h-7z" />
<glyph unicode="&#xce;" horiz-adv-x="776" d="M0 1573l389 281l389 -281h-7l-382 276l-381 -276h-8zM34 0v4h180v1426h-180v4h704v-4h-180v-1426h180v-4h-704z" />
<glyph unicode="&#xcf;" horiz-adv-x="776" d="M-51 1735.5q0 71.5 50 122t122 50.5t122 -50.5t50 -122t-50 -121.5t-122 -50t-122 50t-50 121.5zM35 0v4h180v1426h-180v4h704v-4h-180v-1426h180v-4h-704zM483 1735.5q0 71.5 50.5 122t122 50.5t121.5 -50.5t50 -122t-50 -121.5t-121.5 -50t-122 50t-50.5 121.5z" />
<glyph unicode="&#xd1;" horiz-adv-x="1349" d="M25 0v4h180v1426h-180v4h536l577 -827v820h-182v7h367v-7h-180v-1447l-933 1338v-1314h181v-4h-366zM351 1650q0 103 65 160t170 57q55 0 100 -15.5t74.5 -37.5t55 -44.5t55.5 -38t64 -15.5q76 0 76 87q0 16 -1.5 30t-3.5 20l-1 6h4q6 -22 6 -56q0 -103 -65.5 -160 t-169.5 -57q-55 0 -100 15.5t-74 37.5t-55 44.5t-56 38t-64 15.5q-76 0 -76 -87q0 -16 1.5 -30t3.5 -21l1 -5h-4q-6 22 -6 56z" />
<glyph unicode="&#xd2;" horiz-adv-x="1511" d="M51 716.5q0 152.5 63 293.5t163.5 239t227 156.5t251.5 58.5t251.5 -58.5t226.5 -156.5t163 -239t63 -293.5t-63 -293t-163 -238.5t-226.5 -157t-251.5 -59t-251.5 59t-227 157t-163.5 238.5t-63 293zM418 717q0 -288 37 -452t108 -228t193 -64t193 64t108 228t37 452 t-37 451.5t-108 227.5t-193 64t-193 -64t-108 -227.5t-37 -451.5zM560 1850h7l385 -278h-7z" />
<glyph unicode="&#xd3;" horiz-adv-x="1511" d="M51 716.5q0 152.5 63 293.5t163.5 239t227 156.5t251.5 58.5t251.5 -58.5t226.5 -156.5t163 -239t63 -293.5t-63 -293t-163 -238.5t-226.5 -157t-251.5 -59t-251.5 59t-227 157t-163.5 238.5t-63 293zM418 717q0 -288 37 -452t108 -228t193 -64t193 64t108 228t37 452 t-37 451.5t-108 227.5t-193 64t-193 -64t-108 -227.5t-37 -451.5zM560 1568l385 278h7l-385 -278h-7z" />
<glyph unicode="&#xd4;" horiz-adv-x="1511" d="M51 716.5q0 152.5 63 293.5t163.5 239t227 156.5t251.5 58.5t251.5 -58.5t226.5 -156.5t163 -239t63 -293.5t-63 -293t-163 -238.5t-226.5 -157t-251.5 -59t-251.5 59t-227 157t-163.5 238.5t-63 293zM367 1573l389 281l389 -281h-7l-382 276l-381 -276h-8zM418 717 q0 -288 37 -452t108 -228t193 -64t193 64t108 228t37 452t-37 451.5t-108 227.5t-193 64t-193 -64t-108 -227.5t-37 -451.5z" />
<glyph unicode="&#xd5;" horiz-adv-x="1511" d="M51 716.5q0 152.5 63 293.5t163.5 239t227 156.5t251.5 58.5t251.5 -58.5t226.5 -156.5t163 -239t63 -293.5t-63 -293t-163 -238.5t-226.5 -157t-251.5 -59t-251.5 59t-227 157t-163.5 238.5t-63 293zM418 717q0 -288 37 -452t108 -228t193 -64t193 64t108 228t37 452 t-37 451.5t-108 227.5t-193 64t-193 -64t-108 -227.5t-37 -451.5zM424 1650q0 103 65 160t169 57q55 0 100.5 -15.5t74.5 -37.5t54.5 -44.5t56 -38t64.5 -15.5q76 0 75 87q0 16 -1.5 30t-2.5 20l-2 6h4q6 -22 6 -56q0 -103 -65 -160t-169 -57q-55 0 -100 15.5t-74.5 37.5 t-55 44.5t-55.5 38t-64 15.5q-76 0 -76 -87q0 -16 1.5 -30t2.5 -21l2 -5h-4q-6 22 -6 56z" />
<glyph unicode="&#xd6;" horiz-adv-x="1511" d="M51 716.5q0 152.5 63 293.5t163.5 239t227 156.5t251.5 58.5t251.5 -58.5t226.5 -156.5t163 -239t63 -293.5t-63 -293t-163 -238.5t-226.5 -157t-251.5 -59t-251.5 59t-227 157t-163.5 238.5t-63 293zM314 1735.5q0 71.5 50.5 122t122 50.5t121.5 -50.5t50 -122 t-50 -121.5t-121.5 -50t-122 50t-50.5 121.5zM418 717q0 -288 37 -452t108 -228t193 -64t193 64t108 228t37 452t-37 451.5t-108 227.5t-193 64t-193 -64t-108 -227.5t-37 -451.5zM849 1735.5q0 71.5 50 122t122 50.5t122 -50.5t50 -122t-50 -121.5t-122 -50t-122 50 t-50 121.5z" />
<glyph unicode="&#xd7;" horiz-adv-x="871" d="M87 254l345 344l-345 345l4 3l344 -344l345 344l3 -2l-345 -345l346 -346l-3 -4l-346 346l-345 -344z" />
<glyph unicode="&#xd8;" horiz-adv-x="1511" d="M51 717q0 153 63 293.5t163.5 238.5t227 156.5t251.5 58.5q129 0 258 -61l63 164h5l-63 -166q189 -90 315 -275t126 -409q0 -153 -63 -293.5t-163 -238.5t-226.5 -157t-251.5 -59q-131 0 -264 64l-59 -154h-5l59 156q-187 91 -311.5 275.5t-124.5 406.5zM418 717 q0 -455 95 -617l478 1243q-76 117 -235 117q-122 0 -193 -64t-108 -227.5t-37 -451.5zM516 95q76 -122 240 -122q122 0 193 64t108 228t37 452q0 461 -100 621z" />
<glyph unicode="&#xd9;" horiz-adv-x="1333" d="M25 1430v4h704v-4h-180v-1045q0 -100 12 -167t43 -118.5t87.5 -75.5t142.5 -24q59 0 107 15.5t80 39t55.5 58.5t35 68t19.5 73.5t9.5 68.5t1.5 60v1047h-181v4h366v-4h-180v-1047q0 -69 -9.5 -125t-35 -112t-67 -93.5t-110.5 -60.5t-161 -23q-94 0 -174.5 15t-152.5 50.5 t-123 89t-80 137t-29 190.5v979h-180zM596 1850h7l385 -278h-7z" />
<glyph unicode="&#xda;" horiz-adv-x="1333" d="M25 1430v4h704v-4h-180v-1045q0 -100 12 -167t43 -118.5t87.5 -75.5t142.5 -24q59 0 107 15.5t80 39t55.5 58.5t35 68t19.5 73.5t9.5 68.5t1.5 60v1047h-181v4h366v-4h-180v-1047q0 -69 -9.5 -125t-35 -112t-67 -93.5t-110.5 -60.5t-161 -23q-94 0 -174.5 15t-152.5 50.5 t-123 89t-80 137t-29 190.5v979h-180zM596 1568l385 278h7l-385 -278h-7z" />
<glyph unicode="&#xdb;" horiz-adv-x="1333" d="M25 1430v4h704v-4h-180v-1045q0 -100 12 -167t43 -118.5t87.5 -75.5t142.5 -24q59 0 107 15.5t80 39t55.5 58.5t35 68t19.5 73.5t9.5 68.5t1.5 60v1047h-181v4h366v-4h-180v-1047q0 -69 -9.5 -125t-35 -112t-67 -93.5t-110.5 -60.5t-161 -23q-94 0 -174.5 15t-152.5 50.5 t-123 89t-80 137t-29 190.5v979h-180zM402 1573l390 281l389 -281h-7l-382 276l-381 -276h-9z" />
<glyph unicode="&#xdc;" horiz-adv-x="1333" d="M25 1430v4h704v-4h-180v-1045q0 -100 12 -167t43 -118.5t87.5 -75.5t142.5 -24q59 0 107 15.5t80 39t55.5 58.5t35 68t19.5 73.5t9.5 68.5t1.5 60v1047h-181v4h366v-4h-180v-1047q0 -69 -9.5 -125t-35 -112t-67 -93.5t-110.5 -60.5t-161 -23q-94 0 -174.5 15t-152.5 50.5 t-123 89t-80 137t-29 190.5v979h-180zM350 1735.5q0 71.5 50.5 122t122 50.5t121.5 -50.5t50 -122t-50 -121.5t-121.5 -50t-122 50t-50.5 121.5zM885 1735.5q0 71.5 50 122t121.5 50.5t122 -50.5t50.5 -122t-50.5 -121.5t-122 -50t-121.5 50t-50 121.5z" />
<glyph unicode="&#xdd;" horiz-adv-x="1415" d="M14 1430v4h758v-4h-205l351 -736l315 736h-209v4h375v-4h-160l-319 -746v-680h180v-4h-705v4h180v623l-385 803h-176zM591 1568l385 278h7l-385 -278h-7z" />
<glyph unicode="&#xdf;" horiz-adv-x="1417" d="M20 0v4h171v1122q0 188 127.5 290t371.5 102q155 0 251 -79t96 -195q0 -73 -19.5 -127t-39 -95.5t-19.5 -83.5q0 -32 23 -60t59 -51.5t80 -49t88 -59.5t80.5 -76t59 -105.5t22.5 -140.5q0 -184 -115 -303.5t-325 -119.5q-81 0 -142 21.5t-99 60.5t-59.5 80t-35.5 92 q-10 36 -10 67q0 79 46 133.5t128 54.5q73 0 123.5 -50.5t50.5 -123t-51 -123.5t-123 -51q-59 0 -106 36.5t-62 92.5q9 -43 21.5 -77.5t38 -75t60.5 -68.5t92 -46.5t129 -18.5q214 0 214 252q0 65 -24 115.5t-62 83.5t-84 62t-92.5 59t-84.5 65t-62 89t-24 123 q0 62 32.5 113t79.5 85t94 65t79.5 70t32.5 83q0 68 -30 121t-80 85t-108.5 48.5t-122.5 16.5q-97 0 -134 -52t-37 -164v-1297h-499z" />
<glyph unicode="&#xe0;" d="M66 233q0 117 76.5 194.5t187.5 98.5q52 10 99 13t75 11q57 14 121 104v211q0 91 -42 132.5t-129 41.5q-113 0 -211 -63.5t-120 -162.5q15 55 63 92t105 37q72 0 123 -51t51 -123t-51.5 -123t-122.5 -51q-82 0 -128 54.5t-46 133.5q0 36 10 62q26 69 89.5 117.5 t130.5 68.5t129 20q224 0 350 -99t126 -263v-541q0 -121 78 -120q33 0 49 16q28 26 37 82h4q-29 -152 -184 -152q-125 0 -211.5 67.5t-95.5 158.5q-3 -28 -12.5 -56t-31 -59.5t-52 -55.5t-80.5 -39.5t-111 -15.5q-126 0 -201 73.5t-75 186.5zM350 1522h7l385 -279h-7z M393 166q0 -82 14 -119t56 -37q65 0 113.5 67t48.5 128v442q-50 -72 -119 -110q-113 -61 -113 -189v-182z" />
<glyph unicode="&#xe1;" d="M66 233q0 117 76.5 194.5t187.5 98.5q52 10 99 13t75 11q57 14 121 104v211q0 91 -42 132.5t-129 41.5q-113 0 -211 -63.5t-120 -162.5q15 55 63 92t105 37q72 0 123 -51t51 -123t-51.5 -123t-122.5 -51q-82 0 -128 54.5t-46 133.5q0 36 10 62q26 69 89.5 117.5 t130.5 68.5t129 20q224 0 350 -99t126 -263v-541q0 -121 78 -120q33 0 49 16q28 26 37 82h4q-29 -152 -184 -152q-125 0 -211.5 67.5t-95.5 158.5q-3 -28 -12.5 -56t-31 -59.5t-52 -55.5t-80.5 -39.5t-111 -15.5q-126 0 -201 73.5t-75 186.5zM350 1239l385 279h7l-385 -279 h-7zM393 166q0 -82 14 -119t56 -37q65 0 113.5 67t48.5 128v442q-50 -72 -119 -110q-113 -61 -113 -189v-182z" />
<glyph unicode="&#xe2;" d="M66 233q0 117 76.5 194.5t187.5 98.5q52 10 99 13t75 11q57 14 121 104v211q0 91 -42 132.5t-129 41.5q-113 0 -211 -63.5t-120 -162.5q15 55 63 92t105 37q72 0 123 -51t51 -123t-51.5 -123t-122.5 -51q-82 0 -128 54.5t-46 133.5q0 36 10 62q26 69 89.5 117.5 t130.5 68.5t129 20q224 0 350 -99t126 -263v-541q0 -121 78 -120q33 0 49 16q28 26 37 82h4q-29 -152 -184 -152q-125 0 -211.5 67.5t-95.5 158.5q-3 -28 -12.5 -56t-31 -59.5t-52 -55.5t-80.5 -39.5t-111 -15.5q-126 0 -201 73.5t-75 186.5zM157 1244l389 282l389 -282h-7 l-382 277l-381 -277h-8zM393 166q0 -82 14 -119t56 -37q65 0 113.5 67t48.5 128v442q-50 -72 -119 -110q-113 -61 -113 -189v-182z" />
<glyph unicode="&#xe3;" d="M66 233q0 117 76.5 194.5t187.5 98.5q52 10 99 13t75 11q57 14 121 104v211q0 91 -42 132.5t-129 41.5q-113 0 -211 -63.5t-120 -162.5q15 55 63 92t105 37q72 0 123 -51t51 -123t-51.5 -123t-122.5 -51q-82 0 -128 54.5t-46 133.5q0 36 10 62q26 69 89.5 117.5 t130.5 68.5t129 20q224 0 350 -99t126 -263v-541q0 -121 78 -120q33 0 49 16q28 26 37 82h4q-29 -152 -184 -152q-125 0 -211.5 67.5t-95.5 158.5q-3 -28 -12.5 -56t-31 -59.5t-52 -55.5t-80.5 -39.5t-111 -15.5q-126 0 -201 73.5t-75 186.5zM214 1321q0 103 65 160t170 57 q55 0 100 -15.5t74 -38t54.5 -44.5t56 -37t64.5 -15q76 0 75 87q0 16 -1.5 30t-3.5 19l-1 6h4q6 -22 7 -55q0 -103 -65.5 -160.5t-169.5 -57.5q-55 0 -100 15.5t-74.5 38t-55 44.5t-55.5 37.5t-64 15.5q-76 0 -76 -87q0 -16 1.5 -30t3.5 -19l1 -6h-4q-6 22 -6 55zM393 166 q0 -82 14 -119t56 -37q65 0 113.5 67t48.5 128v442q-50 -72 -119 -110q-113 -61 -113 -189v-182z" />
<glyph unicode="&#xe4;" d="M66 233q0 117 76.5 194.5t187.5 98.5q52 10 99 13t75 11q57 14 121 104v211q0 91 -42 132.5t-129 41.5q-113 0 -211 -63.5t-120 -162.5q15 55 63 92t105 37q72 0 123 -51t51 -123t-51.5 -123t-122.5 -51q-82 0 -128 54.5t-46 133.5q0 36 10 62q26 69 89.5 117.5 t130.5 68.5t129 20q224 0 350 -99t126 -263v-541q0 -121 78 -120q33 0 49 16q28 26 37 82h4q-29 -152 -184 -152q-125 0 -211.5 67.5t-95.5 158.5q-3 -28 -12.5 -56t-31 -59.5t-52 -55.5t-80.5 -39.5t-111 -15.5q-126 0 -201 73.5t-75 186.5zM104 1407q0 72 50.5 122t122 50 t122 -50t50.5 -122t-50.5 -122t-122 -50t-122 50t-50.5 122zM393 166q0 -82 14 -119t56 -37q65 0 113.5 67t48.5 128v442q-50 -72 -119 -110q-113 -61 -113 -189v-182zM639 1407q0 72 50 122t122 50t122 -50t50 -122t-50 -122t-122 -50t-122 50t-50 122z" />
<glyph unicode="&#xe5;" d="M66 233q0 117 76.5 194.5t187.5 98.5q52 10 99 13t75 11q57 14 121 104v211q0 91 -42 132.5t-129 41.5q-113 0 -211 -63.5t-120 -162.5q15 55 63 92t105 37q72 0 123 -51t51 -123t-51.5 -123t-122.5 -51q-82 0 -128 54.5t-46 133.5q0 36 10 62q26 69 89.5 117.5 t130.5 68.5t129 20q224 0 350 -99t126 -263v-541q0 -121 78 -120q33 0 49 16q28 26 37 82h4q-29 -152 -184 -152q-125 0 -211.5 67.5t-95.5 158.5q-3 -28 -12.5 -56t-31 -59.5t-52 -55.5t-80.5 -39.5t-111 -15.5q-126 0 -201 73.5t-75 186.5zM376 1407q0 71 49.5 120t120 49 t120 -49t49.5 -120t-49.5 -120.5t-120 -49.5t-120 49.5t-49.5 120.5zM380 1407q0 -68 49 -117t116.5 -49t116.5 49t49 117t-49 116.5t-116.5 48.5t-116.5 -48.5t-49 -116.5zM393 166q0 -82 14 -119t56 -37q65 0 113.5 67t48.5 128v442q-50 -72 -119 -110q-113 -61 -113 -189 v-182z" />
<glyph unicode="&#xe6;" horiz-adv-x="1615" d="M66 233q0 117 76.5 194.5t187.5 98.5q52 10 99 13t75 11q58 14 121 104v220q0 85 -43 125t-128 40q-113 0 -211 -63.5t-120 -162.5q15 55 63 92t105 37q72 0 123 -51t51 -123t-51.5 -123t-122.5 -51q-82 0 -128 54.5t-46 133.5q0 36 10 62q26 69 89.5 117.5t130.5 68.5 t129 20q229 0 358 -106q131 106 284 107q130 0 239 -73.5t170.5 -196.5t61.5 -267h-614v-57q0 -70 1 -115t6 -98t14.5 -85t25.5 -65t39.5 -50t57.5 -28t79 -11q139 0 233.5 91t133.5 264h4q-50 -214 -175 -300.5t-368 -86.5q-71 0 -136.5 11.5t-126.5 36t-97 70t-37 108.5 q-3 -28 -12.5 -56t-31 -59.5t-52 -55.5t-80.5 -39.5t-111 -15.5q-126 0 -201 73.5t-75 186.5zM393 166q0 -82 14 -119t56 -37q65 0 113.5 67t48.5 128v442q-50 -72 -119 -110q-113 -61 -113 -189v-182zM975 518h266q0 121 -1.5 199.5t-7 141.5t-13.5 96t-22.5 55.5 t-32.5 29.5t-46 7q-33 0 -57 -12t-39 -38.5t-25 -57t-14.5 -80t-6 -94t-1.5 -112.5v-135z" />
<glyph unicode="&#xe7;" horiz-adv-x="929" d="M45 512q0 106 39 204t106.5 172.5t166 118.5t210.5 44q252 0 320 -207q10 -32 10 -62q0 -79 -46 -133.5t-128 -54.5q-72 0 -123 51t-51 123t51 123t123 51q56 0 103.5 -37t63.5 -92q-19 91 -91 159.5t-197 68.5q-45 0 -80 -17.5t-57 -55t-36 -81.5t-21.5 -109.5t-10 -126 t-2.5 -143.5q0 -48 1 -81t6 -90t13.5 -97t26 -87.5t41.5 -77t62 -49.5t86 -20q137 0 212 103.5t83 289.5h4q-17 -406 -348 -425l-25 -30q57 -28 93 -76t36 -113q0 -97 -68.5 -152t-156.5 -55q-163 0 -167 162h4q1 -50 22 -85.5t69 -35.5q35 0 63.5 29.5t28.5 75.5 q0 32 -13.5 56.5t-27.5 32.5l-14 9l149 182q-8 -1 -24 -1q-98 0 -190.5 41.5t-162 112.5t-111.5 171.5t-42 213.5z" />
<glyph unicode="&#xe8;" horiz-adv-x="1036" d="M45 512q0 140 68.5 265t183 199.5t242.5 74.5q130 0 239 -73.5t170.5 -196.5t61.5 -267h-615v-57q0 -70 1 -115t6.5 -98t14.5 -85t25.5 -65t40 -50t57 -28t78.5 -11q141 0 235 92.5t132 262.5h4q-88 -387 -450 -387q-128 0 -242.5 74.5t-183 199.5t-68.5 265zM361 1522h8 l385 -279h-8zM395 518h267q0 121 -2 199.5t-7.5 141.5t-13 96t-22.5 55.5t-32.5 29.5t-45.5 7q-33 0 -57 -12t-39.5 -38.5t-25 -57t-14.5 -80t-6.5 -94t-1.5 -112.5v-135z" />
<glyph unicode="&#xe9;" horiz-adv-x="1036" d="M45 512q0 140 68.5 265t183 199.5t242.5 74.5q130 0 239 -73.5t170.5 -196.5t61.5 -267h-615v-57q0 -70 1 -115t6.5 -98t14.5 -85t25.5 -65t40 -50t57 -28t78.5 -11q141 0 235 92.5t132 262.5h4q-88 -387 -450 -387q-128 0 -242.5 74.5t-183 199.5t-68.5 265zM361 1239 l385 279h8l-385 -279h-8zM395 518h267q0 121 -2 199.5t-7.5 141.5t-13 96t-22.5 55.5t-32.5 29.5t-45.5 7q-33 0 -57 -12t-39.5 -38.5t-25 -57t-14.5 -80t-6.5 -94t-1.5 -112.5v-135z" />
<glyph unicode="&#xea;" horiz-adv-x="1036" d="M45 512q0 140 68.5 265t183 199.5t242.5 74.5q130 0 239 -73.5t170.5 -196.5t61.5 -267h-615v-57q0 -70 1 -115t6.5 -98t14.5 -85t25.5 -65t40 -50t57 -28t78.5 -11q141 0 235 92.5t132 262.5h4q-88 -387 -450 -387q-128 0 -242.5 74.5t-183 199.5t-68.5 265zM168 1244 l389 282l389 -282h-7l-382 277l-381 -277h-8zM395 518h267q0 121 -2 199.5t-7.5 141.5t-13 96t-22.5 55.5t-32.5 29.5t-45.5 7q-33 0 -57 -12t-39.5 -38.5t-25 -57t-14.5 -80t-6.5 -94t-1.5 -112.5v-135z" />
<glyph unicode="&#xeb;" horiz-adv-x="1036" d="M45 512q0 140 68.5 265t183 199.5t242.5 74.5q130 0 239 -73.5t170.5 -196.5t61.5 -267h-615v-57q0 -70 1 -115t6.5 -98t14.5 -85t25.5 -65t40 -50t57 -28t78.5 -11q141 0 235 92.5t132 262.5h4q-88 -387 -450 -387q-128 0 -242.5 74.5t-183 199.5t-68.5 265zM116 1407 q0 72 50 122t121.5 50t122 -50t50.5 -122t-50.5 -122t-122 -50t-121.5 50t-50 122zM395 518h267q0 121 -2 199.5t-7.5 141.5t-13 96t-22.5 55.5t-32.5 29.5t-45.5 7q-33 0 -57 -12t-39.5 -38.5t-25 -57t-14.5 -80t-6.5 -94t-1.5 -112.5v-135zM650 1407q0 72 50.5 122t122 50 t121.5 -50t50 -122t-50 -122t-121.5 -50t-122 50t-50.5 122z" />
<glyph unicode="&#xec;" horiz-adv-x="706" d="M31 0v4h164v1016h-164v4h491v-1020h164v-4h-655zM165 1522h7l385 -279h-7z" />
<glyph unicode="&#xed;" horiz-adv-x="706" d="M31 0v4h164v1016h-164v4h491v-1020h164v-4h-655zM165 1239l385 279h7l-385 -279h-7z" />
<glyph unicode="&#xee;" horiz-adv-x="706" d="M-29 1244l389 282l390 -282h-8l-382 277l-380 -277h-9zM31 0v4h164v1016h-164v4h491v-1020h164v-4h-655z" />
<glyph unicode="&#xef;" horiz-adv-x="706" d="M-82 1407q0 72 50 122t122 50t122 -50t50 -122t-50 -122t-122 -50t-122 50t-50 122zM30 0v4h164v1016h-164v4h491v-1020h164v-4h-655zM453 1407q0 72 50 122t121.5 50t122 -50t50.5 -122t-50.5 -122t-122 -50t-121.5 50t-50 122z" />
<glyph unicode="&#xf1;" horiz-adv-x="1284" d="M31 0v4h164v1016h-164v4h491v-188q61 215 246 215q166 0 249 -105.5t83 -271.5v-670h164v-4h-586v4h94v807q0 117 -18 163t-68 46q-52 0 -97 -57t-67 -146v-813h94v-4h-585zM346 1321q0 103 65 160t170 57q55 0 100 -15.5t74 -38t55 -44.5t56 -37t64 -15q76 0 76 87 q0 16 -2 30t-3 19l-2 6h5q6 -22 6 -55q0 -103 -65.5 -160.5t-169.5 -57.5q-55 0 -100 15.5t-74.5 38t-55 44.5t-55.5 37.5t-64 15.5q-76 0 -76 -87q0 -16 1.5 -30t2.5 -19l2 -6h-4q-6 22 -6 55z" />
<glyph unicode="&#xf2;" d="M45 512q0 139 74 264.5t193 200t247 74.5t247.5 -74.5t193 -200t73.5 -264.5t-73.5 -264.5t-193 -200t-247.5 -74.5t-247 74.5t-193 200t-74 264.5zM365 1522h7l385 -279h-7zM395 512q0 -68 0.5 -109t2.5 -98t7 -92.5t12.5 -78t20 -67t28.5 -47t39.5 -33t53.5 -10.5 t53.5 10.5t40.5 33t29 47.5t20 66.5t13 78t7 92.5t2.5 98.5t0.5 108.5t-0.5 108.5t-2.5 98.5t-7 92.5t-13 78t-20 66.5t-29 47.5t-40.5 33t-53.5 10.5t-53.5 -10.5t-39.5 -33t-28.5 -47t-20 -67t-12.5 -78t-7 -92.5t-2.5 -98t-0.5 -109z" />
<glyph unicode="&#xf3;" d="M45 512q0 139 74 264.5t193 200t247 74.5t247.5 -74.5t193 -200t73.5 -264.5t-73.5 -264.5t-193 -200t-247.5 -74.5t-247 74.5t-193 200t-74 264.5zM365 1239l385 279h7l-385 -279h-7zM395 512q0 -68 0.5 -109t2.5 -98t7 -92.5t12.5 -78t20 -67t28.5 -47t39.5 -33 t53.5 -10.5t53.5 10.5t40.5 33t29 47.5t20 66.5t13 78t7 92.5t2.5 98.5t0.5 108.5t-0.5 108.5t-2.5 98.5t-7 92.5t-13 78t-20 66.5t-29 47.5t-40.5 33t-53.5 10.5t-53.5 -10.5t-39.5 -33t-28.5 -47t-20 -67t-12.5 -78t-7 -92.5t-2.5 -98t-0.5 -109z" />
<glyph unicode="&#xf4;" d="M45 512q0 139 74 264.5t193 200t247 74.5t247.5 -74.5t193 -200t73.5 -264.5t-73.5 -264.5t-193 -200t-247.5 -74.5t-247 74.5t-193 200t-74 264.5zM171 1244l389 282l389 -282h-7l-382 277l-381 -277h-8zM395 512q0 -68 0.5 -109t2.5 -98t7 -92.5t12.5 -78t20 -67 t28.5 -47t39.5 -33t53.5 -10.5t53.5 10.5t40.5 33t29 47.5t20 66.5t13 78t7 92.5t2.5 98.5t0.5 108.5t-0.5 108.5t-2.5 98.5t-7 92.5t-13 78t-20 66.5t-29 47.5t-40.5 33t-53.5 10.5t-53.5 -10.5t-39.5 -33t-28.5 -47t-20 -67t-12.5 -78t-7 -92.5t-2.5 -98t-0.5 -109z" />
<glyph unicode="&#xf5;" d="M45 512q0 139 74 264.5t193 200t247 74.5t247.5 -74.5t193 -200t73.5 -264.5t-73.5 -264.5t-193 -200t-247.5 -74.5t-247 74.5t-193 200t-74 264.5zM228 1321q0 103 65 160t170 57q55 0 100 -15.5t74.5 -38t55 -44.5t55.5 -37t64 -15q76 0 76 87q0 16 -1.5 30t-3.5 19 l-1 6h4q6 -22 6 -55q0 -103 -65.5 -160.5t-169.5 -57.5q-55 0 -100 15.5t-74 38t-55 44.5t-56 37.5t-64 15.5q-76 0 -76 -87q0 -16 2 -30t4 -19l1 -6h-5q-6 22 -6 55zM395 512q0 -68 0.5 -109t2.5 -98t7 -92.5t12.5 -78t20 -67t28.5 -47t39.5 -33t53.5 -10.5t53.5 10.5 t40.5 33t29 47.5t20 66.5t13 78t7 92.5t2.5 98.5t0.5 108.5t-0.5 108.5t-2.5 98.5t-7 92.5t-13 78t-20 66.5t-29 47.5t-40.5 33t-53.5 10.5t-53.5 -10.5t-39.5 -33t-28.5 -47t-20 -67t-12.5 -78t-7 -92.5t-2.5 -98t-0.5 -109z" />
<glyph unicode="&#xf6;" d="M45 512q0 139 74 264.5t193 200t247 74.5t247.5 -74.5t193 -200t73.5 -264.5t-73.5 -264.5t-193 -200t-247.5 -74.5t-247 74.5t-193 200t-74 264.5zM119 1407q0 72 50 122t121.5 50t122 -50t50.5 -122t-50.5 -122t-122 -50t-121.5 50t-50 122zM395 512q0 -68 0.5 -109 t2.5 -98t7 -92.5t12.5 -78t20 -67t28.5 -47t39.5 -33t53.5 -10.5t53.5 10.5t40.5 33t29 47.5t20 66.5t13 78t7 92.5t2.5 98.5t0.5 108.5t-0.5 108.5t-2.5 98.5t-7 92.5t-13 78t-20 66.5t-29 47.5t-40.5 33t-53.5 10.5t-53.5 -10.5t-39.5 -33t-28.5 -47t-20 -67t-12.5 -78 t-7 -92.5t-2.5 -98t-0.5 -109zM653 1407q0 72 50.5 122t122 50t121.5 -50t50 -122t-50 -122t-121.5 -50t-122 50t-50.5 122z" />
<glyph unicode="&#xf7;" horiz-adv-x="632" d="M-51 596v4h735v-4h-735zM148 223.5q0 70.5 50 119.5t120.5 49t119.5 -49t49 -119.5t-49 -120.5t-119.5 -50t-120.5 50t-50 120.5zM148 940q0 71 50 120t120.5 49t119.5 -49t49 -120t-49 -120.5t-119.5 -49.5t-120.5 49.5t-50 120.5zM153 223.5q0 -67.5 49 -117 t116.5 -49.5t116 49.5t48.5 117t-48.5 116t-116 48.5t-116.5 -48.5t-49 -116zM153 940q0 -68 49 -117t116.5 -49t116 49t48.5 117t-48.5 116.5t-116 48.5t-116.5 -48.5t-49 -116.5z" />
<glyph unicode="&#xf8;" d="M45 512q0 139 74 264.5t193 200t247 74.5q79 0 163 -33l64 169h6l-66 -170q147 -60 247 -200.5t100 -304.5q0 -139 -73.5 -264.5t-193 -200t-247.5 -74.5q-108 0 -213 56l-56 -148h-5l57 150q-130 70 -213.5 200.5t-83.5 280.5zM395 512q0 -225 12 -313l282 735 q-38 113 -130 113q-30 0 -53.5 -10.5t-39.5 -33t-28.5 -47t-20 -67t-12.5 -78t-7 -92.5t-2.5 -98t-0.5 -109zM408 188q14 -102 49 -156.5t102 -54.5q30 0 53.5 10.5t40.5 33t29 47.5t20 66.5t13 78t7 92.5t2.5 98.5t0.5 108.5q0 155 -6 251.5t-28 163.5z" />
<glyph unicode="&#xf9;" horiz-adv-x="1253" d="M0 1020v4h492v-811q0 -117 17.5 -163t68.5 -46q52 0 97 57t66 146v813h-94v4h422v-1020h164v-4h-492v188q-61 -215 -245 -215q-166 0 -249 105.5t-83 271.5v670h-164zM417 1522h7l385 -279h-7z" />
<glyph unicode="&#xfa;" horiz-adv-x="1253" d="M0 1020v4h492v-811q0 -117 17.5 -163t68.5 -46q52 0 97 57t66 146v813h-94v4h422v-1020h164v-4h-492v188q-61 -215 -245 -215q-166 0 -249 105.5t-83 271.5v670h-164zM417 1239l385 279h7l-385 -279h-7z" />
<glyph unicode="&#xfb;" horiz-adv-x="1253" d="M0 1020v4h492v-811q0 -117 17.5 -163t68.5 -46q52 0 97 57t66 146v813h-94v4h422v-1020h164v-4h-492v188q-61 -215 -245 -215q-166 0 -249 105.5t-83 271.5v670h-164zM223 1244l389 282l389 -282h-7l-382 277l-381 -277h-8z" />
<glyph unicode="&#xfc;" horiz-adv-x="1253" d="M0 1020v4h492v-811q0 -117 17.5 -163t68.5 -46q52 0 97 57t66 146v813h-94v4h422v-1020h164v-4h-492v188q-61 -215 -245 -215q-166 0 -249 105.5t-83 271.5v670h-164zM171 1407q0 72 50 122t122 50t122 -50t50 -122t-50 -122t-122 -50t-122 50t-50 122zM706 1407 q0 72 50 122t121.5 50t122 -50t50.5 -122t-50.5 -122t-122 -50t-121.5 50t-50 122z" />
<glyph unicode="&#xfd;" horiz-adv-x="1193" d="M14 1020v4h662v-4h-131l253 -600l209 600h-165v4h336v-4h-166l-437 -1251q-47 -135 -113 -203t-177 -68q-61 0 -107 20t-69.5 53t-35 60.5t-16.5 57.5q-4 20 -4 41q0 74 52.5 125t125.5 51t125 -51.5t52 -125t-52 -126t-125 -52.5q-51 0 -94 27.5t-66 71.5 q51 -147 214 -148q111 0 173.5 66.5t110.5 200.5l65 180l-454 1071h-166zM475 1239l385 279h7l-385 -279h-7z" />
<glyph unicode="&#xff;" horiz-adv-x="1193" d="M14 1020v4h662v-4h-131l253 -600l209 600h-165v4h336v-4h-166l-437 -1251q-48 -136 -113.5 -203.5t-176.5 -67.5q-61 0 -107 20t-69.5 53t-35 60.5t-16.5 57.5q-4 20 -4 41q0 74 52.5 125t125.5 51t125 -51.5t52 -125t-52 -126t-125 -52.5q-51 0 -94 27.5t-66 71.5 q51 -147 214 -148q111 0 173.5 66.5t110.5 200.5l65 180l-454 1071h-166zM229 1407q0 72 50.5 122t122 50t121.5 -50t50 -122t-50 -122t-121.5 -50t-122 50t-50.5 122zM764 1407q0 72 50 122t122 50t122 -50t50 -122t-50 -122t-122 -50t-122 50t-50 122z" />
<glyph unicode="&#x152;" horiz-adv-x="1966" d="M51 717q0 132 44 248t120 200.5t174.5 146t210 92t223.5 30.5h993v-519h-5q-1 10 -4.5 29.5t-18.5 72.5t-35.5 101.5t-59.5 108t-86 102t-120 72t-157 29.5h-69v-693h24q53 0 98 18.5t75 49t53 66t36 71.5t20.5 66t9.5 49l3 18h4v-680h-4q-1 7 -2.5 19.5t-10 47.5 t-20.5 67t-35.5 71t-52.5 66.5t-75 47t-99 19.5h-24v-729h69q104 0 191.5 31t143 80t98.5 108.5t65 118.5t36 108.5t18 79.5l3 31h4v-561h-1066q-113 0 -224 30t-209.5 91.5t-174.5 146t-120 201t-44 248.5zM391 716.5q0 -101.5 4.5 -179.5t16.5 -155t32.5 -132.5t53 -104 t78 -78t107 -46.5t140.5 -17h93v1426h-93q-79 0 -140.5 -17t-107 -47t-78 -78t-53 -104t-32.5 -132.5t-16.5 -155t-4.5 -180z" />
<glyph unicode="&#x153;" horiz-adv-x="1716" d="M45 512q0 139 74 264.5t193 200t247 74.5q89 0 175.5 -38t158.5 -105q145 142 326 143q130 0 239 -73.5t170.5 -196.5t61.5 -267h-615v-57q0 -70 1 -115t6 -98t14.5 -85t26 -65t40 -50t57 -28t78.5 -11q141 0 235 92.5t132 262.5h4q-88 -387 -450 -387q-181 0 -326 143 q-71 -68 -158 -105.5t-176 -37.5q-128 0 -247 74.5t-193 200t-74 264.5zM395 512q0 -68 0.5 -109t2.5 -98t7 -92.5t12.5 -78t20 -67t28.5 -47t39.5 -33t53.5 -10.5t53.5 10.5t40.5 33t29 47.5t20 66.5t13 78t7 92.5t2.5 98.5t0.5 108.5t-0.5 108.5t-2.5 98.5t-7 92.5t-13 78 t-20 66.5t-29 47.5t-40.5 33t-53.5 10.5t-53.5 -10.5t-39.5 -33t-28.5 -47t-20 -67t-12.5 -78t-7 -92.5t-2.5 -98t-0.5 -109zM1075 518h266q0 121 -1.5 199.5t-7 141.5t-13 96t-22.5 55.5t-32.5 29.5t-45.5 7q-33 0 -57 -12t-39.5 -38.5t-25.5 -57t-14.5 -80t-6 -94 t-1.5 -112.5v-135z" />
<glyph unicode="&#x178;" horiz-adv-x="1415" d="M14 1430v4h758v-4h-205l351 -736l315 736h-209v4h375v-4h-160l-319 -746v-680h180v-4h-705v4h180v623l-385 803h-176zM345 1735.5q0 71.5 50 122t122 50.5t122 -50.5t50 -122t-50 -121.5t-122 -50t-122 50t-50 121.5zM880 1735.5q0 71.5 50 122t121.5 50.5t122 -50.5 t50.5 -122t-50.5 -121.5t-122 -50t-121.5 50t-50 121.5z" />
<glyph unicode="&#x2c6;" horiz-adv-x="880" d="M51 1244l389 282l389 -282h-7l-382 277l-381 -277h-8z" />
<glyph unicode="&#x2dc;" horiz-adv-x="765" d="M51 1321q0 103 65 160t170 57q55 0 100 -15.5t74 -38t55 -44.5t56 -37t64 -15q76 0 76 87q0 16 -1.5 30t-2.5 19l-2 6h4q6 -22 6 -55q0 -103 -65.5 -160.5t-169.5 -57.5q-55 0 -100 15.5t-74.5 38t-55 44.5t-55.5 37.5t-64 15.5q-76 0 -76 -87q0 -16 1.5 -30t2.5 -19 l2 -6h-4q-6 22 -6 55z" />
<glyph unicode="&#x2000;" horiz-adv-x="954" />
<glyph unicode="&#x2001;" horiz-adv-x="1908" />
<glyph unicode="&#x2002;" horiz-adv-x="954" />
<glyph unicode="&#x2003;" horiz-adv-x="1908" />
<glyph unicode="&#x2004;" horiz-adv-x="636" />
<glyph unicode="&#x2005;" horiz-adv-x="477" />
<glyph unicode="&#x2006;" horiz-adv-x="318" />
<glyph unicode="&#x2007;" horiz-adv-x="318" />
<glyph unicode="&#x2008;" horiz-adv-x="238" />
<glyph unicode="&#x2009;" horiz-adv-x="381" />
<glyph unicode="&#x200a;" horiz-adv-x="106" />
<glyph unicode="&#x2010;" horiz-adv-x="704" d="M86 596v4h530v-4h-530z" />
<glyph unicode="&#x2011;" horiz-adv-x="704" d="M86 596v4h530v-4h-530z" />
<glyph unicode="&#x2012;" horiz-adv-x="704" d="M86 596v4h530v-4h-530z" />
<glyph unicode="&#x2013;" horiz-adv-x="704" d="M86 596v4h530v-4h-530z" />
<glyph unicode="&#x2014;" horiz-adv-x="1216" d="M86 596v4h1042v-4h-1042z" />
<glyph unicode="&#x2018;" horiz-adv-x="399" d="M25 1182q-1 243 247 282v-4q-119 -22 -175.5 -82t-65.5 -166q12 55 60 92t108 37q72 0 123 -51t51 -122.5t-51.5 -123t-122.5 -51.5q-82 0 -128 55t-46 134z" />
<glyph unicode="&#x2019;" horiz-adv-x="399" d="M25 1290.5q0 71.5 51 122.5t123 51q82 0 128 -54.5t46 -133.5q0 -244 -248 -283v4q119 22 175.5 82.5t66.5 165.5q-12 -55 -60.5 -92t-107.5 -37q-72 0 -123 51.5t-51 123z" />
<glyph unicode="&#x201a;" horiz-adv-x="450" d="M51 155.5q0 71.5 51.5 123t122.5 51.5q82 0 128 -55t46 -134q1 -243 -247 -282v4q119 22 175.5 82t65.5 166q-12 -55 -60 -92t-108 -37q-72 0 -123 51t-51 122.5z" />
<glyph unicode="&#x201c;" horiz-adv-x="813" d="M25 1182q-1 243 247 282v-4q-119 -22 -175.5 -82t-65.5 -166q12 55 60 92t108 37q72 0 123 -51t51 -122.5t-51.5 -123t-122.5 -51.5q-82 0 -128 55t-46 134zM438 1182q0 243 248 282v-4q-119 -22 -175.5 -82t-66.5 -166q12 55 60.5 92t107.5 37q72 0 123 -51t51 -122.5 t-51 -123t-123 -51.5q-82 0 -128 55t-46 134z" />
<glyph unicode="&#x201d;" horiz-adv-x="813" d="M25 1290.5q0 71.5 51 122.5t123 51q82 0 128 -54.5t46 -133.5q0 -244 -248 -283v4q119 22 175.5 82.5t66.5 165.5q-12 -55 -60.5 -92t-107.5 -37q-72 0 -123 51.5t-51 123zM438 1290.5q0 71.5 51.5 122.5t122.5 51q82 0 128 -54.5t46 -133.5q1 -244 -247 -283v4 q119 22 175.5 82.5t65.5 165.5q-12 -55 -60 -92t-108 -37q-72 0 -123 51.5t-51 123z" />
<glyph unicode="&#x201e;" horiz-adv-x="874" d="M51 155.5q0 71.5 51.5 123t122.5 51.5q82 0 128 -55t46 -134q1 -243 -247 -282v4q119 22 175.5 82t65.5 166q-12 -55 -60 -92t-108 -37q-72 0 -123 51t-51 122.5zM475 155.5q0 71.5 51.5 123t122.5 51.5q82 0 128 -55t46 -134q0 -243 -248 -282v4q119 22 176 82t66 166 q-12 -55 -60 -92t-108 -37q-72 0 -123 51t-51 122.5z" />
<glyph unicode="&#x2022;" horiz-adv-x="706" d="M186 720q0 74 49.5 124t123 50t123.5 -50t50 -124t-50 -123t-123.5 -49t-123 49t-49.5 123z" />
<glyph unicode="&#x2026;" horiz-adv-x="1904" d="M143 156q0 71 51.5 121.5t122.5 50.5t121.5 -51t50.5 -121q0 -72 -50.5 -123t-121.5 -51q-72 0 -123 51t-51 123zM778 156q0 71 51.5 121.5t122.5 50.5q46 0 82 -19t55 -50t27.5 -67.5t0 -73.5t-27.5 -68t-55 -49.5t-82 -18.5q-72 0 -123 51t-51 123zM1413 156 q0 71 51.5 121.5t122.5 50.5t121.5 -51t50.5 -121q0 -72 -50.5 -123t-121.5 -51q-72 0 -123 51t-51 123z" />
<glyph unicode="&#x202f;" horiz-adv-x="381" />
<glyph unicode="&#x2039;" horiz-adv-x="468" d="M51 635v4l367 307v-4l-363 -305l363 -305v-4z" />
<glyph unicode="&#x203a;" horiz-adv-x="468" d="M51 327v4l363 305l-363 305v4l367 -307v-4z" />
<glyph unicode="&#x205f;" horiz-adv-x="477" />
<glyph unicode="&#x20ac;" horiz-adv-x="1366" d="M51 592v4h142q-8 62 -8.5 120.5t8.5 121.5h-142v4h142q26 179 116 321t227.5 220.5t294.5 78.5q99 0 182 -39t139 -106t92 -152t50 -182h-4q-38 227 -160 351t-299 124q-60 0 -106 -29.5t-84 -98t-60.5 -191t-27.5 -297.5h461v-4h-461q-2 -76 -2 -121t2 -121h461v-4h-461 q4 -141 20 -248t40 -177t59 -113t73 -61t86 -18q178 0 310 125.5t170 350.5h4q-14 -96 -53 -182.5t-99.5 -153t-146 -105.5t-185.5 -39q-158 0 -295 79t-227.5 221t-115.5 321h-142z" />
<glyph unicode="&#x2122;" horiz-adv-x="1597" d="M76 1139v295h573v-295h-4q0 36 -13.5 83t-36 92.5t-59 78t-78.5 37.5v-580h72v-4h-336v4h73v580q-54 -5 -99 -59.5t-66.5 -118.5t-21.5 -113h-4zM693 1430v4h234l191 -381l145 381h258v-4h-74v-580h74v-4h-338v4h73v553l-214 -563l-269 543v-533h73v-4h-151v4h73v580h-75 z" />
<glyph unicode="&#x25fc;" horiz-adv-x="1024" d="M0 0v1024h1024v-1024h-1024z" />
<glyph unicode="&#xfb01;" horiz-adv-x="1603" d="M31 0v4h164v1016h-164v4h164v133q0 148 131.5 254.5t320.5 106.5q117 0 190 -37t101 -123q10 -36 10 -62q0 -79 -46 -133.5t-128 -54.5q-72 0 -123 51t-51 123t51 123t123 51q56 0 104 -37t63 -92q-12 80 -70.5 127t-137.5 47q-90 0 -143 -37q-68 -47 -68 -155v-285h164 v-4h-164v-1016h164v-4h-655zM928 0v4h164v1016h-164v4h491v-1020h164v-4h-655zM1083 1407q0 74 49.5 124t123 50t124 -50t50.5 -124t-50.5 -123t-124 -49t-123 49t-49.5 123z" />
<glyph unicode="&#xfb02;" horiz-adv-x="1654" d="M31 0v4h164v1016h-164v4h164v133q0 148 131.5 254.5t320.5 106.5q117 0 190 -37t101 -123q10 -36 10 -62q0 -79 -46 -133.5t-128 -54.5q-72 0 -123 51t-51 123t51 123t123 51q56 0 104 -37t63 -92q-12 80 -70.5 127t-137.5 47q-90 0 -143 -37q-68 -47 -68 -155v-285h164 v-4h-164v-1016h164v-4h-655zM979 0v4h164v1483h-164v4h491v-1487h164v-4h-655z" />
</font>
</defs>
</svg>
